<svg width="32" height="32" viewBox="0 0 32 32" fill="none" xmlns="http://www.w3.org/2000/svg">
<path d="M16.0003 11C16.5526 11 17.0003 11.4477 17.0003 12V17.5858L17.9599 16.6262C18.3504 16.2357 18.9836 16.2357 19.3741 16.6262C19.7646 17.0168 19.7646 17.6499 19.3741 18.0404L16.7074 20.7071C16.6116 20.803 16.5011 20.8753 16.3831 20.9241C16.2652 20.973 16.1359 21 16.0003 21C15.8647 21 15.7354 20.973 15.6175 20.9241C15.4996 20.8753 15.3891 20.803 15.2932 20.7071L12.6266 18.0404C12.236 17.6499 12.236 17.0168 12.6266 16.6262C13.0171 16.2357 13.6502 16.2357 14.0408 16.6262L15.0003 17.5858V12C15.0003 11.4477 15.448 11 16.0003 11Z" fill="#FCFBFD"/>
<path fill-rule="evenodd" clip-rule="evenodd" d="M5.66699 9.33333C5.66699 5.83553 8.50252 3 12.0003 3H17.7912C19.4709 3 21.0818 3.66726 22.2695 4.85499L24.4787 7.06413C25.6664 8.25186 26.3337 9.86277 26.3337 11.5425V22.6667C26.3337 26.1645 23.4981 29 20.0003 29H12.0003C8.50252 29 5.66699 26.1645 5.66699 22.6667V9.33333ZM12.0003 5C9.60709 5 7.66699 6.9401 7.66699 9.33333V22.6667C7.66699 25.0599 9.60709 27 12.0003 27H20.0003C22.3936 27 24.3337 25.0599 24.3337 22.6667V11.5425C24.3337 10.3932 23.8771 9.291 23.0645 8.47835L20.8553 6.2692C20.0427 5.45655 18.9405 5 17.7912 5H12.0003Z" fill="#FCFBFD"/>
</svg>
