<svg width="28" height="22" viewBox="0 0 28 22" fill="none" xmlns="http://www.w3.org/2000/svg">
<path fill-rule="evenodd" clip-rule="evenodd" d="M5.99984 0.333496H21.9998C24.9454 0.333496 27.3332 2.72131 27.3332 5.66683V16.3335C27.3332 19.279 24.9454 21.6668 21.9998 21.6668H5.99984C3.05432 21.6668 0.666504 19.279 0.666504 16.3335V5.66683C0.666504 2.72131 3.05432 0.333496 5.99984 0.333496ZM6.79984 3.7335C6.46847 3.29167 5.84167 3.20213 5.39984 3.5335C4.95801 3.86487 4.86847 4.49167 5.19984 4.9335L8.93317 9.91127C11.4665 13.2891 16.5332 13.2891 19.0665 9.91127L22.7998 4.9335C23.1312 4.49167 23.0417 3.86487 22.5998 3.5335C22.158 3.20213 21.5312 3.29167 21.1998 3.7335L17.4665 8.71127C15.7332 11.0224 12.2665 11.0224 10.5332 8.71127L6.79984 3.7335Z" fill="#FCFBFD"/>
</svg>
