<svg width="30" height="30" viewBox="0 0 30 30" fill="none" xmlns="http://www.w3.org/2000/svg">
<path fill-rule="evenodd" clip-rule="evenodd" d="M15.2587 2.89132C15.1261 2.74007 14.8737 2.74007 14.7411 2.89132L13.9328 3.81328C13.1986 4.65074 12.0035 4.91176 10.986 4.47534L9.84859 3.98752C9.63865 3.89748 9.43079 4.02452 9.38684 4.18621L8.31464 3.89472L9.38684 4.18621L9.06781 5.35969C8.7733 6.44301 7.7987 7.18655 6.69211 7.22482L5.45084 7.26776C5.22143 7.27569 5.10905 7.46749 5.13825 7.61674L5.37164 8.80933C5.58815 9.91565 5.03552 11.0132 4.04456 11.5226L3.53651 10.5345L4.04456 11.5226L2.94527 12.0878C2.76521 12.1804 2.73446 12.381 2.83561 12.5144L3.57519 13.4899C4.25394 14.3851 4.25394 15.6151 3.57519 16.5104L2.92742 16.0192L3.57519 16.5104L2.83561 17.4859C2.73445 17.6193 2.76521 17.8198 2.94527 17.9124L2.43722 18.9005L2.94527 17.9124L4.04455 18.4776L3.53651 19.4657L4.04455 18.4776C5.03552 18.9871 5.58816 20.0846 5.37165 21.1909L5.13825 22.3835C5.10905 22.5327 5.22143 22.7245 5.45084 22.7325L6.69211 22.7754C7.79869 22.8137 8.7733 23.5572 9.06782 24.6405L9.38684 25.814C9.43079 25.9757 9.63865 26.1027 9.84859 26.0127L10.986 25.5249C12.0035 25.0885 13.1986 25.3495 13.9328 26.1869L14.7411 27.1089C14.8737 27.2601 15.1261 27.2601 15.2587 27.1089L16.067 26.1869C16.8011 25.3495 17.9962 25.0885 19.0138 25.5249L20.1512 26.0127C20.3611 26.1027 20.569 25.9757 20.6129 25.814L20.9319 24.6405C21.2265 23.5572 22.2011 22.8137 23.3077 22.7754L24.5489 22.7325C24.7783 22.7245 24.8907 22.5327 24.8615 22.3835L24.6281 21.1909C24.4116 20.0846 24.9642 18.9871 25.9552 18.4776L27.0545 17.9124C27.2346 17.8198 27.2653 17.6193 27.1642 17.4859L26.4246 16.5104C25.7458 15.6151 25.7458 14.3851 26.4246 13.4899L27.1642 12.5144C27.2653 12.381 27.2346 12.1804 27.0545 12.0878L25.9552 11.5226C24.9642 11.0132 24.4116 9.91566 24.6281 8.80933L24.8615 7.61674C24.8907 7.46749 24.7783 7.27569 24.5489 7.26776L23.3077 7.22482C22.2011 7.18655 21.2265 6.44301 20.9319 5.35969L20.6129 4.18621C20.569 4.02452 20.3611 3.89748 20.1512 3.98752L19.0138 4.47534C17.9962 4.91175 16.8011 4.65074 16.067 3.81328L15.2587 2.89132ZM16.9297 1.4264L16.0942 2.15886L16.9297 1.4264L17.738 2.34835C17.8296 2.45285 17.9933 2.49503 18.1378 2.43303L19.2752 1.94521C20.6842 1.34094 22.3472 2.09469 22.7573 3.60323L23.0763 4.77671C23.1078 4.89235 23.2229 4.99834 23.3845 5.00393L24.6257 5.04686C26.163 5.10003 27.3453 6.49536 27.0424 8.04353L26.809 9.23612C26.787 9.34827 26.8391 9.47837 26.9713 9.54633L28.0706 10.1115C29.4552 10.8234 29.8865 12.6019 28.935 13.8569L28.1954 14.8324C28.1185 14.9338 28.1185 15.0664 28.1954 15.1678L28.935 16.1433C29.8865 17.3983 29.4552 19.1769 28.0706 19.8887L26.9713 20.4539C26.8391 20.5219 26.787 20.6519 26.809 20.7641L27.0424 21.9567C27.3453 23.5049 26.163 24.9002 24.6257 24.9534L23.3845 24.9963C23.2228 25.0019 23.1078 25.1079 23.0763 25.2235L22.7573 26.397C22.3472 27.9055 20.6842 28.6593 19.2752 28.055L18.1379 27.5672L18.5256 26.6632L18.1378 27.5672C17.9933 27.5052 17.8296 27.5474 17.738 27.6519L16.9297 28.5738C15.9119 29.7348 14.0879 29.7348 13.0701 28.5738L12.2618 27.6519C12.1702 27.5474 12.0065 27.5052 11.8619 27.5672L10.7245 28.055C9.31559 28.6593 7.65256 27.9055 7.24245 26.397L6.92343 25.2235C6.89199 25.1079 6.77692 25.0019 6.61529 24.9963L5.37402 24.9534C3.83672 24.9002 2.65442 23.5049 2.9574 21.9567L3.19079 20.7641C3.21274 20.6519 3.16065 20.5219 3.02846 20.4539L1.92917 19.8887C0.544606 19.1769 0.113293 17.3983 1.06479 16.1433L1.73619 16.6523L1.06479 16.1433L1.80437 15.1678C1.88125 15.0664 1.88125 14.9338 1.80437 14.8324L1.06479 13.8569C0.113293 12.6019 0.544608 10.8234 1.92917 10.1115L3.02846 9.54633C3.16065 9.47837 3.21274 9.34827 3.19079 9.23612L2.9574 8.04353C2.65442 6.49535 3.83673 5.10003 5.37402 5.04686L6.61529 5.00393C6.77692 4.99834 6.89199 4.89235 6.92342 4.77671L7.82114 5.02076L6.92343 4.77671L7.24245 3.60323C7.65256 2.09469 9.31559 1.34094 10.7245 1.94521L11.8619 2.43303L11.424 3.45419L11.8619 2.43303C12.0065 2.49503 12.1702 2.45285 12.2618 2.34835L13.0701 1.42639C14.0879 0.265419 15.9119 0.265422 16.9297 1.4264ZM19.2675 10.6832C19.7063 10.2542 20.4098 10.2622 20.8387 10.701C21.2677 11.1398 21.2598 11.8433 20.8209 12.2723L13.6148 19.317C13.183 19.7391 12.4931 19.7391 12.0613 19.317L9.17883 16.4991C8.74003 16.0701 8.73206 15.3667 9.16103 14.9279C9.59001 14.4891 10.2935 14.4811 10.7323 14.9101L12.838 16.9686L19.2675 10.6832Z" fill="#17D41F"/>
</svg>
