<svg width="20" height="8" viewBox="0 0 20 8" fill="none" xmlns="http://www.w3.org/2000/svg">
<path d="M4.53033 1.53033C4.82322 1.23744 4.82322 0.762562 4.53033 0.469669C4.23744 0.176776 3.76256 0.176777 3.46967 0.469671L0.471748 3.4676C0.464999 3.4743 0.458376 3.48112 0.451884 3.48807C0.326651 3.6221 0.25 3.8021 0.25 4C0.25 4.1006 0.269806 4.19658 0.305734 4.28424C0.342343 4.37377 0.396989 4.45766 0.46967 4.53034L3.46967 7.53034C3.76256 7.82323 4.23744 7.82323 4.53033 7.53034C4.82322 7.23744 4.82322 6.76257 4.53033 6.46968L2.81065 4.75H19C19.4142 4.75 19.75 4.41421 19.75 4C19.75 3.58579 19.4142 3.25 19 3.25H2.81066L4.53033 1.53033Z" fill="#FCFBFD"/>
</svg>
