<svg width="29" height="15" viewBox="0 0 29 15" fill="none" xmlns="http://www.w3.org/2000/svg">
<path d="M4.92578 5.35672C4.34975 5.32195 3.77253 5.40118 3.22709 5.58987C2.68165 5.77856 2.17869 6.07303 1.74695 6.45643C1.73351 6.46824 1.71694 6.47589 1.69925 6.47849C1.68156 6.48109 1.66349 6.47852 1.64723 6.47108C1.63096 6.46364 1.61719 6.45166 1.60756 6.43657C1.59794 6.42148 1.59287 6.40393 1.59297 6.38603V0.439002H0.25V9.7619C0.25 9.7619 0.25 9.76613 0.25 9.76824C0.250013 10.6311 0.502294 11.4751 0.97572 12.1961C1.44915 12.917 2.123 13.4835 2.91416 13.8255C3.70531 14.1675 4.57915 14.2701 5.42787 14.1207C6.27658 13.9712 7.06304 13.5763 7.69022 12.9845C8.3174 12.3928 8.75786 11.6302 8.95726 10.7907C9.15665 9.9513 9.10626 9.07178 8.81231 8.26067C8.51835 7.44957 7.99369 6.74237 7.30304 6.22634C6.6124 5.7103 5.786 5.408 4.92578 5.35672ZM4.99609 12.8252C4.36398 12.8942 3.72605 12.765 3.17037 12.4555C2.61469 12.146 2.16865 11.6714 1.8938 11.0973C1.61895 10.5232 1.52885 9.87776 1.63593 9.25016C1.74301 8.62257 2.04199 8.04372 2.49161 7.59351C2.94124 7.1433 3.51933 6.84393 4.14611 6.73671C4.77289 6.62949 5.41746 6.71971 5.99085 6.99492C6.56424 7.27012 7.03819 7.71675 7.34729 8.27315C7.65638 8.82956 7.78538 9.46831 7.71649 10.1013C7.64009 10.7973 7.32902 11.4465 6.83459 11.9417C6.34016 12.4369 5.69191 12.7485 4.9968 12.8252H4.99609Z" fill="white"/>
<path d="M24.8383 1.46972V0.125C23.6691 0.126487 22.5481 0.591888 21.7208 1.41927C20.8936 2.24666 20.4276 3.36858 20.4248 4.53933V4.68014C20.4248 4.69246 20.4199 4.70428 20.4112 4.713C20.4025 4.72171 20.3907 4.72661 20.3784 4.72661H18.9946V6.07203H20.3784C20.3845 6.07203 20.3906 6.07325 20.3963 6.07563C20.402 6.07801 20.4071 6.0815 20.4114 6.08589C20.4157 6.09028 20.4191 6.09548 20.4214 6.1012C20.4237 6.10692 20.4249 6.11304 20.4248 6.1192V13.8735H21.7677V6.1192C21.7677 6.10681 21.7726 6.09492 21.7813 6.08609C21.79 6.07726 21.8018 6.07221 21.8141 6.07203H24.228V4.72801H21.8141C21.8019 4.72783 21.7902 4.72288 21.7815 4.7142C21.7729 4.70553 21.7679 4.69381 21.7677 4.68155V4.54074C21.7696 3.72622 22.0938 2.94564 22.6693 2.37001C23.2449 1.79439 24.0248 1.47065 24.8383 1.46972Z" fill="white"/>
<path d="M14.6556 5.35672C14.0795 5.32194 13.5021 5.40115 12.9566 5.58984C12.411 5.77853 11.908 6.07301 11.4761 6.45643C11.4627 6.46833 11.4462 6.47607 11.4285 6.47871C11.4108 6.48135 11.3928 6.47879 11.3765 6.47132C11.3603 6.46386 11.3465 6.45182 11.337 6.43667C11.3275 6.42153 11.3225 6.40393 11.3228 6.38603V0.439002H9.97984V9.76824C9.97986 10.6311 10.2321 11.4751 10.7056 12.1961C11.179 12.917 11.8528 13.4835 12.644 13.8255C13.4352 14.1675 14.309 14.2701 15.1577 14.1207C16.0064 13.9712 16.7929 13.5763 17.4201 12.9845C18.0472 12.3928 18.4877 11.6302 18.6871 10.7907C18.8865 9.9513 18.8361 9.07178 18.5421 8.26067C18.2482 7.44957 17.7235 6.74237 17.0329 6.22634C16.3422 5.7103 15.5158 5.408 14.6556 5.35672ZM14.7259 12.8252C14.0938 12.8942 13.4559 12.765 12.9002 12.4555C12.3445 12.146 11.8985 11.6714 11.6236 11.0973C11.3488 10.5232 11.2587 9.87776 11.3658 9.25016C11.4729 8.62257 11.7718 8.04372 12.2215 7.59351C12.6711 7.1433 13.2492 6.84393 13.876 6.73671C14.5027 6.62949 15.1473 6.71971 15.7207 6.99492C16.2941 7.27012 16.768 7.71675 17.0771 8.27315C17.3862 8.82956 17.5152 9.46831 17.4463 10.1013C17.3699 10.7973 17.0589 11.4465 16.5644 11.9417C16.07 12.4369 15.4218 12.7485 14.7266 12.8252H14.7259Z" fill="white"/>
<path d="M27.1811 9.07969C27.8405 9.07969 28.375 8.54446 28.375 7.88423C28.375 7.22399 27.8405 6.68877 27.1811 6.68877C26.5217 6.68877 25.9872 7.22399 25.9872 7.88423C25.9872 8.54446 26.5217 9.07969 27.1811 9.07969Z" fill="white"/>
<path d="M27.1811 12.8428C27.8405 12.8428 28.375 12.3076 28.375 11.6473C28.375 10.9871 27.8405 10.4519 27.1811 10.4519C26.5217 10.4519 25.9872 10.9871 25.9872 11.6473C25.9872 12.3076 26.5217 12.8428 27.1811 12.8428Z" fill="white"/>
</svg>
