<svg width="40" height="33" viewBox="0 0 40 33" fill="none" xmlns="http://www.w3.org/2000/svg">
<path d="M21.0394 0.000209808L17.2828 0.244549L17.1841 0.838209C16.784 0.429461 16.2688 0.209211 15.6499 0.183798L13.0605 0.0736198L12.8601 0.826883C12.8065 0.771818 12.7487 0.719639 12.6866 0.672338C12.3076 0.377956 11.8651 0.258617 11.3711 0.318624L8.48332 0.668745L8.21869 3.21591L8.74582 3.8915L8.83266 4.63771L5.1523 4.06656L5.04295 4.54231C4.98085 4.54305 4.92709 4.54585 4.87981 4.54938L4.352 4.58828C3.02525 4.68711 1.95185 5.14732 1.16215 5.95705C0.299059 6.83526 -0.0862114 7.98028 0.0161176 9.36113C0.0542266 9.87577 0.162842 10.3517 0.340683 10.7788L1.29906 12.4343L0.433112 17.0702L2.18619 19.3145L2.62583 19.5219C3.82061 20.0888 5.01683 20.3755 6.18126 20.3755C6.35416 20.3755 6.52909 20.3692 6.69988 20.3565C8.02733 20.2584 9.12059 19.8072 9.95192 19.0137L9.95605 19.0088C10.3287 18.6459 10.6216 18.2358 10.8291 17.7847L10.9011 19.354C10.8355 19.6314 10.7783 19.9717 10.7649 20.3473C10.7359 21.1556 10.9152 21.8891 11.2885 22.5196C11.0874 22.5725 10.9279 22.7418 10.8996 22.9607C10.8905 23.0362 10.6767 24.8131 11.7769 26.225C12.3514 26.9613 13.1636 27.4549 14.1988 27.697L13.8877 28.7608L17.3407 29.5946L19.8002 32.1431L22.2525 29.5875L25.7035 28.7452L25.393 27.6949C26.4226 27.452 27.2322 26.9585 27.8045 26.225C28.9047 24.8131 28.6908 23.0362 28.6816 22.9607C28.6534 22.7418 28.4939 22.5725 28.2921 22.5196C28.6661 21.8891 28.8453 21.1556 28.8164 20.3473C28.8115 20.2005 28.7988 20.0606 28.7826 19.9258H30.9441C31.5899 20.1545 32.2463 20.2901 32.8949 20.3282C33.024 20.336 33.1531 20.3388 33.278 20.3388C34.3923 20.3388 35.3626 20.0431 36.1643 19.4585L36.1693 19.4549C36.5567 19.1676 36.88 18.8266 37.1313 18.4419L38.5222 16.5281C38.5829 16.4504 38.6415 16.3692 38.6965 16.2873L38.7742 16.1808H38.7663C39.1679 15.5405 39.3966 14.7858 39.446 13.9295C39.5201 12.6687 39.1298 11.6175 38.2865 10.8021L40 5.85473L35.5942 4.69979L35.4368 5.12052C35.3895 5.11558 35.3472 5.11132 35.3091 5.1092L34.8044 5.08029C33.8326 5.0231 32.9739 5.18622 32.2413 5.5639L32.6985 4.02766L30.9794 3.93387L31.2321 0.512072L29.2802 0.387768L29.3316 0.0708237L26.3691 0.302372L26.2815 0.699121L26.0373 0.327816L23.6563 0.514204L23.5694 0.939196L23.3542 0.538183L21.268 0.701252L21.0394 0.000209808ZM20.6322 0.60173L22.2645 5.59281L20.5976 5.70086L20.4262 4.99835L19.062 5.08668L18.9024 5.8109L17.2447 5.91895L17.9943 2.17741L17.5391 2.20205L17.774 0.787315L20.6322 0.60173ZM13.4967 0.665947L15.6259 0.756273C16.1298 0.776745 16.5348 0.962421 16.8404 1.31116C17.1502 1.6599 17.2948 2.10042 17.273 2.62918C17.2447 3.32454 16.9646 3.83847 16.4318 4.17168L17.1615 5.75308L17.1912 5.81796L17.1431 5.81584L15.4156 5.74323L14.8376 4.24309L14.7783 5.71631L13.2935 5.65356L13.4368 2.13158L13.1106 2.11812L13.4967 0.665947ZM28.6491 0.69912L27.8341 5.76854L25.8912 5.92108L25.2088 4.02419L24.8249 6.00435L22.8814 6.15623L21.2885 1.27519L23.1685 1.12771L23.8503 3.07535L24.2285 1.04431L25.7091 0.928535L26.398 2.87631L26.7691 0.845936L28.6491 0.69912ZM11.6874 0.879774C11.9267 0.893806 12.1424 0.97574 12.3351 1.12558C12.5913 1.32466 12.7394 1.60276 12.7818 1.95998C12.8397 2.45768 12.683 2.85438 12.3124 3.14876C12.5961 3.30548 12.7988 3.46441 12.9202 3.62678C13.0535 3.81033 13.1389 4.06017 13.1749 4.37432C13.2208 4.76542 13.1199 5.10072 12.8729 5.38098C12.6478 5.64854 12.3449 5.80525 11.9631 5.85114L9.58487 6.13917L9.1756 2.63198L8.8517 2.67154L9.00686 1.1834L11.4402 0.8883C11.5253 0.877888 11.6077 0.875099 11.6874 0.879774ZM28.9131 0.939192L30.6174 1.04711L30.3633 4.47463L31.9414 4.5607L31.4876 6.08415L28.7678 5.90976L29.0254 2.42374L28.7007 2.39909L28.9131 0.939192ZM14.9138 2.14983L14.8849 3.07535L15.3033 3.08948C15.5595 3.09653 15.7733 2.89606 15.781 2.6405C15.7888 2.38494 15.5885 2.17038 15.333 2.16261L14.9138 2.14983ZM19.5538 2.25228L19.2588 3.75588L20.0112 3.70725L19.5538 2.25228ZM10.8838 2.27586C10.8723 2.27586 10.8605 2.2764 10.8488 2.27759L10.5418 2.30877L10.611 2.98783L10.918 2.95678C11.1058 2.93843 11.2419 2.77046 11.2235 2.58268C11.2057 2.4073 11.057 2.27589 10.8838 2.27586ZM11.1793 3.98956C11.1646 3.98953 11.1497 3.99017 11.1347 3.99169L10.7422 4.03192L10.8297 4.89963L11.2222 4.86006C11.4622 4.83606 11.6365 4.62136 11.6118 4.38204C11.5899 4.15768 11.4006 3.98989 11.1793 3.98956ZM5.79384 5.01247L9.07185 5.52153L8.11134 9.02447C7.76695 8.85575 6.11627 8.37634 5.41973 8.48223C4.89608 8.56201 4.64056 8.72236 4.66738 9.08522C4.68432 9.31254 5.09366 9.53341 5.89466 9.74802C6.93347 10.0375 7.68017 10.3355 8.13465 10.644C8.97375 11.2207 9.43463 12.0607 9.51509 13.1613C9.60895 14.4221 9.24185 15.4536 8.41686 16.2563C7.65187 16.9862 6.64276 17.3978 5.3887 17.4902C4.07888 17.5877 2.73728 17.3095 1.36113 16.6586L2.00267 13.2207L3.52068 13.7763C4.13254 13.9704 4.6533 14.0516 5.08238 14.0198C5.57708 13.9838 5.81146 13.7833 5.78465 13.4204C5.76489 13.1479 5.34852 12.9044 4.53553 12.6905C3.48683 12.4151 2.72391 12.1236 2.24825 11.8158C1.39857 11.2504 0.932809 10.4123 0.85024 9.29972C0.766965 8.16383 1.06892 7.24621 1.75841 6.54378C2.40626 5.88019 3.29131 5.50665 4.4134 5.42334L4.9412 5.38457C5.00754 5.37963 5.10424 5.37753 5.23127 5.37964C5.3583 5.38177 5.5164 5.38743 5.70554 5.3959L5.79384 5.01247ZM36.1136 5.70086L38.9195 6.4364L37.7508 9.91189C37.4459 9.70928 37.0522 9.50659 36.5674 9.30398C36.0218 9.07525 35.6069 8.95388 35.3232 8.93694C34.8186 8.90729 34.556 9.06687 34.5355 9.41349C34.5228 9.63022 34.8821 9.89131 35.6139 10.1949C36.5603 10.5994 37.2293 10.9757 37.621 11.3252C38.3422 11.9768 38.6726 12.8288 38.6112 13.8807C38.5406 15.0851 38.0641 16.0156 37.182 16.6714C36.3662 17.2665 35.3599 17.5284 34.1609 17.4585C33.0635 17.3943 31.9781 17.0547 30.9047 16.4384L31.1566 16.9792L27.7938 16.8281L26.7084 14.0361L26.5849 16.7737L24.4643 16.6777L24.4671 16.6869H21.3352L21.1001 15.3505H18.537L18.1509 16.6869H15.0366L16.8926 9.77773L16.038 9.77001L16.6498 7.15223H22.0197L23.8764 14.3883L24.0698 10.1011L23.4522 10.0728L24.1919 7.37672L28.2243 7.55884C29.1784 7.6012 29.9442 7.94858 30.5201 8.59947C30.6655 8.76114 30.7911 8.93342 30.8976 9.11626C30.9654 8.04109 31.3662 7.21648 32.1023 6.64184C32.7988 6.09543 33.6838 5.85266 34.7558 5.91548L35.2603 5.94506C35.3231 5.9493 35.4149 5.95922 35.5356 5.97757C35.6563 5.99522 35.8044 6.01997 35.9823 6.05244L36.1136 5.70086ZM16.2814 7.15223L15.4819 10.2246L13.2588 10.3185L13.5694 16.5683L10.8891 16.701L10.5638 10.4138L8.39009 10.543L8.93774 7.87445L12.8982 7.65636L12.9568 7.29985L16.2814 7.15223ZM26.5772 10.0474L26.5201 11.8631L27.3415 11.8886C27.8433 11.9048 28.2624 11.5108 28.278 11.0089C28.2942 10.5077 27.9004 10.0877 27.3987 10.0728L26.5772 10.0474ZM20.0479 10.0912L19.29 12.8741L20.7099 12.8839L20.0479 10.0912ZM31.3302 11.0286V11.0534C31.2724 12.3453 30.7374 13.2983 29.7275 13.9139L30.5871 15.7592L31.4939 12.9926L32.8602 13.7085C33.4142 13.9704 33.897 14.1122 34.307 14.1363C34.7805 14.1638 35.0268 14.0042 35.0465 13.6569C35.0621 13.3964 34.6993 13.1141 33.9568 12.8098C32.9992 12.4159 32.314 12.0439 31.9018 11.693C31.6725 11.4925 31.482 11.2707 31.3302 11.0286ZM19.7812 16.2033L22.3338 18.8493L25.9181 19.7133L24.8891 23.2333L25.928 26.7503L22.3457 27.6249L19.8002 30.2779L17.2477 27.632L13.6632 26.7679L14.6922 23.2474L13.6533 19.7303L17.2355 18.8563L19.7812 16.2033ZM11.6096 18.8422L12.9356 19.3759L13.0894 19.8962L14.0796 23.2487L13.0994 26.6027L13.0747 26.6874C11.1064 25.4774 11.4191 23.0285 11.4191 23.0285L12.5298 23.1577C11.3011 22.1616 11.2011 20.8421 11.326 19.9258C11.4128 19.2862 11.6096 18.8422 11.6096 18.8422ZM27.9716 18.8422C27.9716 18.8422 28.1686 19.2862 28.2554 19.9258C28.3804 20.8421 28.28 22.1616 27.0507 23.1577L28.1622 23.0285C28.1622 23.0285 28.4734 25.4662 26.5193 26.679L26.4918 26.5836L25.5016 23.2325L26.4819 19.8785L26.6273 19.3837L27.9716 18.8422ZM19.7902 18.8972C17.4049 18.8972 15.4721 20.8273 15.4721 23.2078C15.4721 25.589 17.4049 27.519 19.7902 27.519C22.1749 27.519 24.1085 25.589 24.1085 23.2078C24.1085 20.8273 22.1749 18.8972 19.7902 18.8972ZM19.7902 19.6137C21.7719 19.6137 23.3782 21.2912 23.3782 23.0539C23.3782 24.2138 22.6803 25.1196 21.6393 25.6046V26.0118C21.6393 26.2307 21.4622 26.4086 21.2427 26.4086H18.3379C18.1191 26.4086 17.9406 26.2307 17.9406 26.0118V25.6046C16.9004 25.1196 16.2018 24.2138 16.2018 23.0539C16.2018 21.2912 17.8086 19.6137 19.7902 19.6137ZM18.9135 22.1435C18.8499 22.1435 18.7864 22.1676 18.7381 22.2159C18.6407 22.3126 18.6407 22.4701 18.7381 22.5675L19.1982 23.0264C19.2469 23.0744 19.3104 23.0998 19.3739 23.0998C19.4381 23.0998 19.5017 23.0744 19.5504 23.0264C19.6471 22.9296 19.6471 22.773 19.5504 22.6756L19.0896 22.2159C19.0409 22.1676 18.9771 22.1435 18.9135 22.1435ZM20.6992 22.1435C20.6357 22.1435 20.5722 22.1676 20.5235 22.2159L20.0627 22.6756C19.966 22.773 19.966 22.9303 20.0627 23.0264C20.1121 23.0751 20.1757 23.0998 20.2392 23.0998C20.3027 23.0998 20.3662 23.0751 20.4149 23.0264L20.875 22.5675C20.9724 22.4701 20.9724 22.3134 20.875 22.2159C20.8263 22.1676 20.7627 22.1435 20.6992 22.1435ZM18.2059 22.7079C17.6293 22.7079 17.1622 23.1922 17.1622 23.7895C17.1622 24.3867 17.6293 24.871 18.2059 24.871C18.7825 24.871 19.2497 24.3867 19.2497 23.7895C19.2497 23.1922 18.7825 22.7079 18.2059 22.7079ZM21.4558 22.7079C20.8792 22.7079 20.4121 23.1922 20.4121 23.7895C20.4121 24.3867 20.8792 24.871 21.4558 24.871C22.0324 24.871 22.4996 24.3867 22.4996 23.7895C22.4996 23.1922 22.0324 22.7079 21.4558 22.7079ZM19.8093 24.1573C19.8093 24.1566 19.2497 25.0546 19.2497 25.0546C19.2489 25.056 20.3309 25.056 20.3302 25.0546L19.8093 24.1573Z" fill="#FCFBFD"/>
</svg>
