<svg width="31" height="32" viewBox="0 0 31 32" fill="none" xmlns="http://www.w3.org/2000/svg">
<path d="M12.1667 28.75V21.6667H3.83333C1.99238 21.6667 0.5 20.1743 0.5 18.3333V11.6667C0.5 9.82572 1.99238 8.33333 3.83333 8.33333C5.67428 8.33333 7.16667 9.82572 7.16667 11.6667V15H11.3333V4.16667C11.3333 1.86548 13.1988 0 15.5 0C17.8012 0 19.6667 1.86548 19.6667 4.16667V18.3333H23.8333V13.3333C23.8333 11.4924 25.3257 10 27.1667 10C29.0076 10 30.5 11.4924 30.5 13.3333V21.6667C30.5 23.5076 29.0076 25 27.1667 25H20.5V28.75H25.5C26.1904 28.75 26.75 29.3096 26.75 30C26.75 30.6904 26.1904 31.25 25.5 31.25H7.16667C6.47631 31.25 5.91667 30.6904 5.91667 30C5.91667 29.3096 6.47631 28.75 7.16667 28.75H12.1667Z" fill="#FCFBFD" fill-opacity="0.09"/>
</svg>
