<svg width="45" height="25" viewBox="0 0 45 25" fill="none" xmlns="http://www.w3.org/2000/svg">
<path d="M11.4776 8.23469V5.34694C11.2652 5.39796 10.8405 5.5 10.1225 5.58163C9.87982 5.61224 9.39443 5.66327 8.65623 5.66327C8.28207 5.66327 7.54387 5.66327 6.95735 5.32653C6.76522 5.21429 6.38095 4.9898 6.38095 4.39796C6.38095 4.20408 6.38095 3.81633 6.9169 3.5102C7.09893 3.40816 7.45286 3.21429 8.41353 3.21429C8.70679 3.21429 9.29331 3.21429 10.1124 3.33673C10.3854 3.37755 10.9214 3.45918 11.4776 3.64286V0.663265C11.245 0.55102 10.7798 0.316327 9.97084 0.153061C9.6978 0.102041 9.16185 0 8.13039 0C7.78657 0 7.10904 0 6.28994 0.316326C6.0169 0.418367 5.47084 0.632653 4.89443 1.21429C4.7023 1.40816 4.31803 1.79592 4.01466 2.63265C3.91353 2.90816 3.70117 3.46939 3.70117 4.52041C3.70117 4.83673 3.70117 5.47959 4.00454 6.26531C4.10567 6.53061 4.30791 7.05102 4.91466 7.62245C5.09668 7.79592 5.46072 8.13265 6.21915 8.42857L11.427 8.26531C11.4472 8.2449 11.4675 8.23469 11.4776 8.23469Z" fill="#FCFBFD"/>
<path d="M19.6687 7.72444C19.871 7.54077 20.2856 7.18362 20.6193 6.3877C20.7305 6.1224 20.953 5.59179 20.953 4.55097C20.953 4.19383 20.953 3.47954 20.6193 2.64281C20.508 2.3673 20.2856 1.80607 19.6788 1.21424C19.4766 1.02036 19.0721 0.622399 18.2125 0.306073C17.9294 0.204032 17.353 -0.0102539 16.2912 -0.0102539C15.9373 -0.0102539 15.2395 -0.0102539 14.38 0.306073C14.0968 0.408113 13.5204 0.622399 12.9036 1.20403C12.7013 1.39791 12.2867 1.78566 11.9631 2.6326C11.8519 2.90811 11.6294 3.46934 11.6294 4.53056C11.6294 4.8673 11.6294 5.53056 11.9631 6.32648C12.0743 6.59179 12.2968 7.1224 12.9036 7.67342C13.035 7.79587 13.2474 7.98974 13.6013 8.18362L19.3148 7.99995C19.426 7.91832 19.5474 7.83668 19.6687 7.72444ZM17.6968 5.30607C17.6058 5.35709 17.4238 5.46934 17.0597 5.54077C16.9384 5.56117 16.6957 5.61219 16.2811 5.61219C16.1395 5.61219 15.8665 5.61219 15.5024 5.53056C15.3811 5.49995 15.1384 5.44893 14.8552 5.29587C14.7642 5.24485 14.5721 5.14281 14.4103 4.91832C14.3597 4.84689 14.2485 4.69383 14.2485 4.3877C14.2485 4.28566 14.2485 4.08158 14.4103 3.85709C14.4609 3.78566 14.5721 3.6326 14.8552 3.47954C14.9462 3.42852 15.1384 3.32648 15.5125 3.25505C15.6339 3.23464 15.8867 3.18362 16.2811 3.18362C16.4125 3.18362 16.6856 3.18362 17.0496 3.25505C17.171 3.27546 17.4238 3.32648 17.6968 3.47954C17.7878 3.53056 17.9698 3.6224 18.1418 3.85709C18.1923 3.92852 18.3036 4.08158 18.3036 4.3877C18.3036 4.48975 18.3036 4.69383 18.1418 4.91832C18.0912 4.98975 17.98 5.14281 17.6968 5.30607Z" fill="#FCFBFD"/>
<path d="M32.8046 6.2551C32.9057 5.97959 33.0979 5.41837 33.0979 4.36735C33.0979 3.67347 33.0979 2.28571 31.945 1.14286C31.5709 0.755102 30.8024 0 28.7495 0C28.4765 0 27.9203 0 27.2731 0.204082C27.0507 0.27551 26.6158 0.408163 26.1203 0.765306C25.9484 0.887755 25.6147 1.12245 25.2709 1.64286C25.1597 1.81633 24.9271 2.15306 24.7349 2.76531H24.2091V0.142857H21.2866V7.93878L24.2091 7.84694V5.9898H24.7046C24.8057 6.38775 25.008 7.12245 25.7057 7.79592L32.0259 7.59184C32.2181 7.37755 32.5417 6.9898 32.8046 6.2551ZM30.1147 5.42857C29.9327 5.54082 29.5788 5.7551 28.7495 5.7551C28.4765 5.7551 27.9406 5.7551 27.3945 5.41837C27.2125 5.30612 26.8484 5.08163 26.8484 4.43878C26.8484 4.21429 26.8484 3.77551 27.3743 3.46939C27.5462 3.36735 27.9001 3.17347 28.7495 3.17347C29.0327 3.17347 29.599 3.17347 30.1248 3.4898C30.2967 3.59184 30.6507 3.80612 30.6507 4.43878C30.6507 4.65306 30.6507 5.10204 30.1147 5.42857Z" fill="#FCFBFD"/>
<path d="M40.7324 5.08158C40.6616 4.99995 40.5302 4.82648 40.2672 4.67342C40.1762 4.6224 39.9942 4.53056 39.7414 4.42852C39.9133 4.32648 40.2672 4.1224 40.5908 3.67342C40.7021 3.52036 40.9245 3.22444 40.9245 2.46934C40.9245 2.22444 40.9245 1.73464 40.5908 1.25505C40.4796 1.10199 40.2571 0.785664 39.6908 0.49995C39.4987 0.408113 39.1245 0.214236 38.3863 0.101991C38.1335 0.0611747 37.638 -0.0102539 36.7987 -0.0102539C36.4245 -0.0102539 35.6661 -0.0102539 34.847 0.193828C34.574 0.265256 34.0279 0.397909 33.3706 0.632603V2.99995C33.4717 2.96934 33.6841 2.89791 34.0987 2.82648C34.2302 2.80607 34.5032 2.75505 34.9279 2.69383C35.0695 2.67342 35.3526 2.64281 35.747 2.61219C35.8785 2.60199 36.1515 2.58158 36.4448 2.58158C36.6268 2.58158 36.9908 2.58158 37.365 2.61219C37.4863 2.6224 37.729 2.64281 37.9414 2.71424C38.0122 2.73464 38.1538 2.78566 38.2448 2.89791C38.2751 2.93873 38.3358 3.01015 38.3358 3.19383C38.3358 3.24485 38.3358 3.35709 38.2448 3.46934C38.2144 3.49995 38.1538 3.57138 38.0021 3.6224C37.9515 3.64281 37.8504 3.67342 37.6481 3.69383C37.5773 3.70403 37.4459 3.71424 37.2234 3.71424H34.7459V5.3775H37.1931C37.3346 5.3775 37.6077 5.3775 37.8706 5.42852C37.9616 5.44893 38.1335 5.47954 38.2751 5.57138C38.3257 5.60199 38.4167 5.65301 38.4672 5.75505C38.4875 5.78566 38.5178 5.85709 38.5178 5.93872C38.5178 5.98975 38.5178 6.08158 38.447 6.19383C38.4167 6.23464 38.3661 6.30607 38.174 6.3877C38.1032 6.41832 37.9717 6.46934 37.6279 6.51015C37.5066 6.52036 37.274 6.55097 36.7077 6.55097C36.4347 6.55097 35.8785 6.55097 35.0493 6.48975C34.7762 6.46934 34.22 6.42852 33.3706 6.23464V7.55097L40.874 7.30607C40.9549 7.1326 41.0155 6.91832 41.0459 6.68362C41.0762 6.48975 41.1268 6.11219 41.0358 5.72444C40.9953 5.60199 40.9245 5.33668 40.7324 5.08158Z" fill="#FCFBFD"/>
<path d="M12.8732 8.74463L8.48448 8.87728L7.83729 11.4181H7.49347L6.85639 8.9283L2.41707 9.07116L1.75977 15.6426L4.66201 15.6834L4.94516 12.5712H5.28898L5.89572 15.7038L9.41482 15.765L10.0418 12.5712H10.3856L10.6688 15.7854L13.5912 15.8263L12.8732 8.74463Z" fill="#FCFBFD"/>
<path d="M14.4605 13.4999C14.3594 13.4794 14.1572 13.4488 13.9246 13.3366V15.8366L17.828 15.8978C18.0808 15.6835 18.4347 15.3162 18.7583 14.6019L21.5291 8.46924L18.3942 8.57128L17.474 11.1427H17.1302L16.1999 8.6325L13.1763 8.72434L15.4617 13.4999C15.4111 13.5101 15.2999 13.5407 14.9763 13.5407C14.9156 13.5509 14.7639 13.5509 14.4605 13.4999Z" fill="#FCFBFD"/>
<path d="M26.7069 8.30615L21.9136 8.45921L19.9619 15.9286L22.9855 15.9796L24.1484 11.8368H24.5024L25.6855 16.0204L28.7293 16.0715L26.7069 8.30615Z" fill="#FCFBFD"/>
<path d="M35.7774 15.4695C36.1212 15.1736 36.7987 14.5716 36.7987 13.0002C36.7987 12.694 36.7987 12.0716 36.4853 11.4389C36.3841 11.2349 36.1718 10.8165 35.6156 10.4389C35.4336 10.3165 35.0695 10.0614 34.3313 9.90832C34.0886 9.8573 33.5931 9.74506 32.7437 9.74506H32.3796C32.319 9.74506 32.1976 9.74506 31.9751 9.77567V8.13281L29.083 8.22465V16.0716L34.5336 16.1532C34.9482 16.0308 35.383 15.8165 35.7774 15.4695ZM33.8864 13.6124C33.765 13.6838 33.5122 13.8165 32.6426 13.8165C32.592 13.8165 32.501 13.8165 32.3493 13.8063C32.2987 13.8063 32.1875 13.7961 31.9751 13.7655V12.2961C32.0358 12.2961 32.1572 12.2859 32.3089 12.2757C32.3594 12.2757 32.4706 12.2655 32.683 12.2655C32.9358 12.2655 33.4414 12.2655 33.856 12.4389C33.9976 12.5002 34.2706 12.6124 34.2706 13.0206C34.2605 13.143 34.2605 13.4083 33.8864 13.6124Z" fill="#FCFBFD"/>
<path d="M36.3945 7.98953V10.7548H38.8316V16.2344L41.744 16.2752V10.7548H44.3024V7.74463L36.3945 7.98953Z" fill="#FCFBFD"/>
<path d="M1.17303 23.1124C1.35506 23.2757 1.70899 23.6022 2.43708 23.8777C2.67977 23.9696 3.16517 24.1532 3.98427 24.2349V24.7043H6.8764V24.2349C7.13933 24.2043 7.66517 24.1532 8.37303 23.8777C8.61573 23.7859 9.09101 23.6022 9.64719 23.1226C9.82921 22.9594 10.2034 22.6328 10.5371 21.9185C10.6483 21.6838 10.8708 21.2043 10.8708 20.2247C10.8708 19.8981 10.8708 19.2553 10.5371 18.5206C10.4258 18.2757 10.2034 17.7859 9.64719 17.2859C9.46517 17.1124 9.09101 16.7757 8.37303 16.49C8.2618 16.4389 8.08989 16.3777 7.8573 16.3063L3.23595 16.2349C3.00337 16.2859 2.74045 16.3675 2.43708 16.49C2.19438 16.592 1.70899 16.7859 1.17303 17.2859C0.991011 17.4491 0.626966 17.7859 0.313483 18.5206C0.21236 18.7655 0 19.2553 0 20.2247C0 20.5512 0 21.194 0.313483 21.9185C0.424719 22.143 0.637079 22.6226 1.17303 23.1124ZM6.88652 19.0512C7.02809 19.0512 7.30112 19.0512 7.56404 19.143C7.65506 19.1736 7.83708 19.2349 7.98876 19.3981C8.03932 19.4491 8.15056 19.5614 8.21124 19.7553C8.23146 19.8267 8.28202 19.9594 8.28202 20.1634C8.28202 20.3675 8.28202 20.7451 7.92809 21.1022C7.80674 21.2247 7.57416 21.4594 6.8764 21.4594V19.0512H6.88652ZM2.64944 19.7961C2.66966 19.7247 2.72022 19.5818 2.88202 19.4185C2.93258 19.3675 3.04382 19.2553 3.31685 19.1532C3.40786 19.1226 3.58989 19.0512 3.98427 19.0512V21.4389C3.85281 21.4389 3.57977 21.4389 3.31685 21.3369C3.22584 21.3063 3.04382 21.2349 2.88202 21.0716C2.83146 21.0206 2.72022 20.9083 2.64944 20.694C2.62921 20.6226 2.57865 20.4798 2.57865 20.2451C2.57865 20.1634 2.57865 20.0104 2.64944 19.7961Z" fill="#FCFBFD"/>
<path d="M11.1035 16.3569V24.3875H13.9552L15.7249 20.9488H16.0181V24.3875H18.6271V16.4692L15.4518 16.4182L14.0058 19.2243H13.7327V16.3977L11.1035 16.3569Z" fill="#FCFBFD"/>
<path d="M18.981 24.3878H21.7113L22.8338 19.9286H23.1574L24.2899 24.3878H27.0102L25.1798 16.5714L20.8315 16.5L18.981 24.3878Z" fill="#FCFBFD"/>
<path d="M27.3335 16.6021V24.2143C27.8695 24.2959 28.9312 24.4694 30.6807 24.4694C31.2672 24.4694 32.4504 24.4694 33.3706 23.5714C33.6739 23.2755 34.2908 22.6735 34.2908 21.1021C34.2908 20.7959 34.2908 20.1735 34.0077 19.5408C33.9166 19.3367 33.7245 18.9184 33.229 18.5408C33.0672 18.4184 32.7335 18.1633 32.0661 18.0102C31.8436 17.9592 31.3987 17.8469 30.6301 17.8469H30.3065C30.2459 17.8469 30.1346 17.8469 29.9425 17.8776V16.6429L27.3335 16.6021ZM30.2357 20.3572C30.2863 20.3572 30.3773 20.3469 30.5796 20.3469C30.802 20.3469 31.2571 20.3469 31.6312 20.5204C31.7526 20.5816 32.0054 20.6939 32.0054 21.1021C32.0054 21.2347 32.0054 21.5102 31.6616 21.7041C31.5504 21.7755 31.3178 21.9082 30.5391 21.9082C30.4987 21.9082 30.4178 21.9082 30.2762 21.898C30.2256 21.898 30.1346 21.8878 29.9324 21.8572V20.3878C29.9829 20.3674 30.0942 20.3572 30.2357 20.3572Z" fill="#FCFBFD"/>
<path d="M34.21 24.3878H36.8392L37.1324 20.6633H37.4459L38.1032 24.3878H41.0661L41.7234 20.6633H42.0268L42.3302 24.3878H44.9594L44.2718 16.8572L40.3583 16.796L39.7414 19.5103H39.4279L38.801 16.7756L34.9077 16.7144L34.21 24.3878Z" fill="#FCFBFD"/>
</svg>
