<svg width="32" height="10" viewBox="0 0 32 10" fill="none" xmlns="http://www.w3.org/2000/svg">
<path d="M3.9505 1.9724C3.23542 1.65325 2.80635 1.5469 2.37728 1.5469C1.94821 1.5469 1.66217 1.68872 1.66217 1.93693C1.66217 2.68153 4.16505 2.4688 4.16505 4.17075C4.16505 5.12809 3.37844 5.65996 2.27001 5.65996C1.41191 5.65996 0.982837 5.44723 0.482275 5.19903V4.13528C1.19735 4.59624 1.62642 4.77354 2.16277 4.77354C2.62758 4.77354 2.87784 4.59624 2.87784 4.31257C2.87784 3.49705 0.375 3.81616 0.375 2.04331C0.375 1.19232 1.12586 0.625 2.27001 0.625C2.80635 0.625 3.30691 0.731372 3.9505 1.01503V1.9724ZM7.49021 5.44723C7.06122 5.58905 6.70368 5.65996 6.3461 5.65996C5.16617 5.65996 4.41535 4.98627 4.41535 3.95802C4.41535 2.96521 5.20196 2.2206 6.31036 2.2206C6.63215 2.2206 7.09696 2.29151 7.41894 2.43333V3.21341C7.13271 3.07156 6.81092 3.00065 6.56066 3.00065C5.91703 3.00065 5.52375 3.39067 5.52375 3.95802C5.52375 4.56077 5.91703 4.91536 6.52487 4.91536C6.77517 4.91536 6.98969 4.84445 7.4544 4.70263V5.44723H7.49021ZM17.2514 2.2206C16.2145 2.2206 15.4996 2.92974 15.4996 3.95802C15.4996 4.98627 16.2503 5.65996 17.4302 5.65996C17.6805 5.65996 18.3242 5.65996 18.932 5.23447V4.56077C18.4313 4.91536 18.1097 5.02174 17.7164 5.02174C17.0727 5.02174 16.6436 4.66715 16.6078 4.09984H18.9679C19.0033 2.92974 18.2167 2.2206 17.2514 2.2206ZM16.6078 3.56796C16.6436 3.10703 16.9298 2.85883 17.3231 2.85883C17.7164 2.85883 18.0022 3.14247 18.038 3.56796H16.6078ZM19.3611 5.58905H20.4335V2.29151H19.3611V5.58905ZM23.3298 0.695913V2.43333C23.0436 2.29151 22.7578 2.2206 22.4716 2.2206C21.5063 2.2206 20.8626 2.92974 20.8626 3.92255C20.8626 4.91536 21.5063 5.62449 22.4003 5.62449C22.7578 5.62449 23.0436 5.51814 23.3298 5.30538V5.58905H24.3668V0.695913H23.3298ZM23.3298 4.70263C23.1153 4.87988 22.9365 4.95083 22.722 4.95083C22.2212 4.95083 21.9354 4.56077 21.9354 3.95802C21.9354 3.28432 22.2571 2.92974 22.7578 2.92974C22.9365 2.92974 23.1869 3.00065 23.3298 3.10703V4.70263ZM26.5836 2.2206C25.5466 2.2206 24.8317 2.92974 24.8317 3.95802C24.8317 4.98627 25.5824 5.65996 26.7623 5.65996C27.0127 5.65996 27.6563 5.65996 28.2642 5.23447V4.56077C27.7634 4.91536 27.4418 5.02174 27.0127 5.02174C26.369 5.02174 25.9399 4.66715 25.9041 4.09984H28.2996C28.3354 2.92974 27.5489 2.2206 26.5836 2.2206ZM25.9399 3.56796C25.9757 3.10703 26.2619 2.85883 26.6552 2.85883C27.0485 2.85883 27.3343 3.14247 27.3701 3.56796H25.9399ZM29.8731 3.24885C30.1948 2.57515 30.5522 2.2206 30.9455 2.2206C31.1601 2.2206 31.3388 2.29151 31.625 2.53971L31.3388 3.46161C31.053 3.28432 30.8742 3.21341 30.731 3.21341C30.3377 3.21341 30.0877 3.56796 29.8731 4.17075V5.58905H28.8362V2.29151H29.8731V3.24885ZM20.4694 0.908661C20.5768 1.15686 20.3977 1.51143 20.0761 1.7242C19.7544 1.90145 19.4324 1.86602 19.3253 1.58234C19.2179 1.33415 19.3966 0.979575 19.7186 0.766831C20.0403 0.589541 20.3623 0.625 20.4694 0.908661ZM11.2447 3.49705C11.2447 2.61062 10.6369 2.2206 10.029 2.2206C9.59992 2.2206 9.27791 2.39786 8.99208 2.78792V0.695913H7.95514V5.58905H8.95626V3.49705C9.20663 3.14247 9.42119 3.00065 9.6712 3.00065C9.99321 3.00065 10.2078 3.21341 10.2078 3.70982V4.87988C10.5652 4.70263 10.9227 4.59624 11.2447 4.56077V3.49705ZM13.8548 2.2206C13.4257 2.2206 13.1037 2.36242 12.782 2.75244V2.29151H11.7451V4.52533C12.1025 4.56077 12.5675 4.73806 12.782 4.98627V3.46161C13.0682 3.03612 13.2469 2.92974 13.4973 2.92974C13.7831 2.92974 14.0335 3.10703 14.0335 3.60343V5.62449H15.0705V3.49705C15.0705 2.50424 14.391 2.2206 13.8548 2.2206ZM15.6425 6.54639H14.4268V7.39738H15.6067V7.75197H14.4268V8.63839H15.6783V9.02842H14.0335V6.15637H15.6425V6.54639ZM16.6436 9.02842H17.0369V6.15637H16.6436V9.02842ZM18.36 8.14199H19.6828C19.6828 7.43285 19.3611 7.11371 18.8604 7.11371C18.3242 7.11371 17.9664 7.50376 17.9664 8.07108C17.9664 8.60292 18.2884 9.06389 18.8962 9.06389C19.2179 9.06389 19.4324 8.99298 19.647 8.85112V8.49657C19.4324 8.63839 19.2179 8.7093 19.0033 8.7093C18.61 8.7093 18.3955 8.49657 18.36 8.14199ZM18.8604 7.43285C19.1108 7.43285 19.2895 7.61011 19.2895 7.89379H18.3242C18.3955 7.57467 18.5742 7.43285 18.8604 7.43285ZM22.1141 7.64558C21.8996 7.50376 21.7567 7.46829 21.5779 7.46829C21.2201 7.46829 21.0056 7.71649 21.0056 8.10652C21.0056 8.49657 21.2559 8.7093 21.6492 8.7093C21.7925 8.7093 21.9712 8.67387 22.15 8.56748V8.92207C22.007 8.99298 21.7925 9.02842 21.5779 9.02842C21.0056 9.02842 20.6123 8.63839 20.6123 8.10652C20.6123 7.50376 20.9701 7.07827 21.5421 7.07827C21.7567 7.07827 21.8996 7.11371 22.0783 7.22009V7.64558H22.1141ZM23.7947 7.14918H24.4026V7.46829H23.7947V8.42566C23.7947 8.63839 23.9377 8.7093 24.0806 8.7093C24.2239 8.7093 24.3668 8.67387 24.5097 8.56748V8.92207C24.3668 8.99298 24.188 9.06389 24.0448 9.06389C23.6515 9.06389 23.4369 8.81569 23.4369 8.4611V7.46829H23.1153V7.43285L23.8306 6.75916V7.14918H23.7947ZM25.8328 7.14918V7.57467C26.0115 7.25556 26.1903 7.11371 26.369 7.11371C26.5119 7.11371 26.6552 7.18465 26.8339 7.32647L26.6194 7.64558C26.5119 7.5392 26.369 7.46829 26.2619 7.46829C26.0115 7.46829 25.797 7.71649 25.797 8.03561V9.02842H25.4395V7.14918H25.8328ZM30.6597 7.64558C30.4451 7.50376 30.3022 7.46829 30.1231 7.46829C29.7657 7.46829 29.5511 7.71649 29.5511 8.10652C29.5511 8.49657 29.8015 8.7093 30.1948 8.7093C30.3377 8.7093 30.5168 8.67387 30.6955 8.56748V8.92207C30.5522 8.99298 30.3377 9.02842 30.1231 9.02842C29.5511 9.02842 29.1578 8.63839 29.1578 8.10652C29.1578 7.50376 29.5153 7.07827 30.0877 7.07827C30.3022 7.07827 30.4451 7.11371 30.6239 7.22009V7.64558H30.6597ZM27.8351 9.02842H28.1925V7.14918H27.8351V9.02842ZM28.1925 6.47548C28.2283 6.58186 28.1567 6.68825 28.0496 6.75916C27.9422 6.83007 27.8351 6.79459 27.7992 6.72368C27.7634 6.6173 27.8351 6.51095 27.9422 6.44004C28.0496 6.3691 28.1567 6.3691 28.1925 6.47548ZM11.7809 7.39738L11.888 7.00736H12.8895C13.0324 6.40457 12.9249 5.87269 12.5675 5.51814C11.8525 4.80897 10.3148 5.05718 9.17081 6.1209C8.99208 6.29819 8.8488 6.47548 8.70589 6.65277H9.31373L9.17081 7.0428H8.42006C8.34842 7.18465 8.27679 7.291 8.24097 7.43285H9.13499L8.99208 7.82288H8.13387C7.99096 8.4611 8.09805 9.02842 8.45552 9.383C9.17081 10.0921 10.7081 9.84393 11.8525 8.78021C12.0671 8.60292 12.21 8.39019 12.3529 8.17746H11.5663L11.6738 7.7874H12.6033C12.6749 7.64558 12.7462 7.5392 12.782 7.39738H11.7809ZM11.5305 6.6173C11.4593 6.6173 11.4234 6.6173 11.4234 6.65277C11.4234 6.65277 11.4234 6.68825 11.3876 6.68825L11.066 7.92926C10.9943 8.35472 10.4581 8.81569 9.74283 8.81569H8.74171L8.92044 8.17746H9.5641C9.63574 8.17746 9.6712 8.14199 9.70701 8.10652C9.70701 8.07108 9.74283 8.07108 9.74283 8.03561L9.9932 6.93645C10.1003 6.51095 10.5652 6.01455 11.2802 6.01455H12.2816L12.1384 6.6173H11.5305Z" fill="white"/>
</svg>
