<svg width="26" height="26" viewBox="0 0 26 26" fill="none" xmlns="http://www.w3.org/2000/svg">
<path d="M17.5909 13.9325H16.8965V6.94035C16.8965 6.72301 16.7215 6.54807 16.5042 6.54807H11.6378C11.5636 6.54807 11.4841 6.54807 11.4098 6.54807C10.9062 6.53747 10.4609 6.53217 10.0581 6.90854C9.65517 7.27962 9.61276 7.81503 9.59156 8.09069C9.58626 8.1278 9.58626 8.1596 9.58096 8.19141C9.54915 8.44056 9.52265 8.75333 9.48024 9.17211C9.47494 9.23573 9.46963 9.30464 9.46433 9.37356C9.11446 13.1691 8.46242 13.9272 8.46242 13.9272H7.8793C7.60895 13.9272 7.3916 14.1445 7.3916 14.4149V16.6732C7.3916 17.304 7.90051 17.8129 8.53134 17.8129H9.37421C9.59156 17.8129 9.7718 17.638 9.7718 17.4153V16.1325H15.4705V16.6732C15.4705 17.304 15.9794 17.8129 16.6102 17.8129H17.5909C17.8083 17.8129 17.9885 17.638 17.9885 17.4153L17.9991 17.4206V14.3407C17.9991 14.1127 17.8136 13.9325 17.5909 13.9325ZM14.3732 13.9272H10.9009C11.6696 13.0684 11.8604 10.7147 11.9187 8.82224H14.3732V13.9272Z" fill="white"/>
<path d="M13 0.5C6.09796 0.5 0.5 6.09796 0.5 13C0.5 19.902 6.09796 25.5 13 25.5C19.902 25.5 25.5 19.902 25.5 13C25.5 6.09796 19.902 0.5 13 0.5ZM13 23.9839C9.33694 23.9839 6.09266 22.1868 4.09945 19.4302C6.84012 20.3049 9.84584 20.7873 13 20.7873C16.1542 20.7873 19.1599 20.3049 21.9005 19.4302C19.9073 22.1868 16.6631 23.9839 13 23.9839ZM13 19.8702C9.655 19.8702 6.45844 19.4143 3.54813 18.598C2.57803 16.9599 2.01612 15.0462 2.01612 13.0053C2.01612 6.93554 6.93554 2.02142 13 2.02142C19.0698 2.02142 23.9839 6.94084 23.9839 13.0053C23.9839 15.0515 23.422 16.9599 22.4519 18.598C19.5363 19.4196 16.345 19.8702 13 19.8702Z" fill="white"/>
</svg>
