<svg width="50" height="8" viewBox="0 0 50 8" fill="none" xmlns="http://www.w3.org/2000/svg">
<mask id="mask0_5053_10" style="mask-type:luminance" maskUnits="userSpaceOnUse" x="0" y="0" width="50" height="8">
<path d="M50 0H0V7.75862H50V0Z" fill="white"/>
</mask>
<g mask="url(#mask0_5053_10)">
<path d="M7.81192 0.000488281H0V1.5515H7.81192V0.000488281Z" fill="#FCFBFD"/>
<path d="M7.81192 3.10205H0V4.65307H7.81192V3.10205Z" fill="#FCFBFD"/>
<path d="M7.81192 6.2041H0V7.75515H7.81192V6.2041Z" fill="#FCFBFD"/>
<path d="M38.1688 1.55258L39.4028 4.65159H36.9314L38.1688 1.55258ZM36.9717 0.000976562L33.9727 7.75608H35.7637L36.3503 6.20159L39.9875 6.20312L40.5739 7.75608H42.3552L39.1821 0.000976562H36.9717Z" fill="#FCFBFD"/>
<path d="M10.936 0.000976562V7.75608H17.3453V6.20605L12.5028 6.20336V4.65328H17.3453V3.09925H12.5028V1.55313L17.3453 1.54793V0.000976562H10.936Z" fill="#FCFBFD"/>
<path d="M43.438 7.74992H46.4671H47.6693C48.9309 7.74992 49.9996 6.89848 49.9996 5.44806C49.9996 4.85025 49.7686 4.2637 49.0477 3.87546C49.8822 3.39333 49.9996 2.90066 49.9996 2.30287C49.9996 1.04118 48.9309 0.000976562 47.6693 0.000976562H46.4671H43.438V1.57813H47.5965C48.021 1.57813 48.3649 1.91968 48.3649 2.341C48.3649 2.76234 48.021 3.10391 47.5965 3.10391H46.7661H44.2171V4.64698H46.7661H47.5965C48.021 4.64698 48.3649 4.98855 48.3649 5.40987C48.3649 5.83119 48.021 6.17276 47.5965 6.17276H43.438V7.74992Z" fill="#FCFBFD"/>
<path d="M31.8122 0.000976562H30.61H27.5029V7.75608H29.066V4.647H30.9092H31.8122C33.1046 4.647 34.1522 3.60696 34.1522 2.32399C34.1522 1.04103 33.1046 0.000976562 31.8122 0.000976562ZM31.7393 3.10391H29.0639V1.57813H31.7393C32.1639 1.57813 32.5078 1.91968 32.5078 2.341C32.5078 2.76234 32.1639 3.10391 31.7393 3.10391Z" fill="#FCFBFD"/>
<path d="M24.8749 3.87546C25.7093 3.39333 25.8268 2.90066 25.8268 2.30287C25.8268 1.04118 24.7579 0.000976562 23.4963 0.000976562C23.496 0.000976562 23.4957 0.000976562 23.4954 0.000976562H19.2251V7.74992H23.5735C24.8351 7.74992 25.904 6.89848 25.904 5.44806C25.904 4.85025 25.5958 4.26373 24.8749 3.87546ZM20.7861 1.57813H23.4226C23.847 1.57813 24.191 1.91968 24.191 2.341C24.191 2.76234 23.847 3.10391 23.4226 3.10391H22.6314H20.7861V1.57813ZM23.5007 6.17276H20.7861V4.64698H23.5007C23.9251 4.64698 24.2692 4.98855 24.2692 5.40987C24.2692 5.83119 23.9251 6.17276 23.5007 6.17276Z" fill="#FCFBFD"/>
</g>
</svg>
