<svg width="45" height="21" viewBox="0 0 45 21" fill="none" xmlns="http://www.w3.org/2000/svg">
<path fill-rule="evenodd" clip-rule="evenodd" d="M42.6408 1.17988C42.6405 1.02495 42.6708 0.871483 42.7299 0.728275C42.789 0.585066 42.8758 0.454932 42.9853 0.345327C43.0948 0.235721 43.2249 0.1488 43.368 0.0895429C43.5112 0.030286 43.6646 -0.000142189 43.8196 2.03484e-06C43.9746 -0.000286114 44.1282 0.0300315 44.2715 0.0892173C44.4148 0.148403 44.545 0.235294 44.6547 0.344906C44.7644 0.454518 44.8513 0.584697 44.9106 0.72798C44.9698 0.871263 45.0002 1.02483 45 1.17988C45.0003 1.33494 44.9699 1.48853 44.9107 1.63183C44.8515 1.77513 44.7645 1.90532 44.6549 2.01493C44.5452 2.12453 44.4149 2.21139 44.2716 2.27052C44.1282 2.32965 43.9746 2.35989 43.8196 2.35949C43.6646 2.35974 43.5112 2.3294 43.368 2.2702C43.2248 2.211 43.0947 2.1241 42.9852 2.01451C42.8757 1.90491 42.7889 1.77476 42.7298 1.63154C42.6707 1.48831 42.6404 1.33482 42.6408 1.17988ZM43.8201 0.234173C44.3448 0.234447 44.7713 0.656829 44.7699 1.18152C44.7713 1.70622 44.3432 2.12997 43.8201 2.12997C43.6958 2.12979 43.5727 2.10511 43.458 2.05733C43.3432 2.00956 43.2389 1.93963 43.1512 1.85154C43.0635 1.76346 42.994 1.65894 42.9467 1.54398C42.8994 1.42901 42.8752 1.30584 42.8755 1.18152C42.875 1.0572 42.899 0.933986 42.9462 0.818982C42.9935 0.703978 43.063 0.59945 43.1508 0.511409C43.2386 0.423367 43.3429 0.353548 43.4578 0.30597C43.5726 0.258391 43.6958 0.233992 43.8201 0.234173ZM44.2794 1.55001L44.4203 1.79622L44.1147 1.79814L44.0171 1.59844C43.9736 1.51101 43.9174 1.43045 43.8505 1.35934C43.8023 1.30928 43.7583 1.2967 43.6497 1.2967L43.6048 1.29697L43.6043 1.79759H43.3523V0.57558H43.961C44.2233 0.57558 44.3465 0.721937 44.3465 0.91562C44.347 1.10028 44.2223 1.23295 44.016 1.25758L44.0165 1.26441C44.1213 1.3008 44.156 1.33499 44.2794 1.55001ZM43.604 0.765434V1.1011H43.8592C44.0299 1.1011 44.0863 1.01793 44.0838 0.931488C44.0838 0.823704 43.9982 0.764614 43.8319 0.764614L43.604 0.765434ZM31.9037 3.68272C33.0931 2.27387 34.8532 1.26469 37.3985 1.26469C41.8042 1.26469 42.9567 4.14532 42.8123 6.86728C42.7267 8.50319 42.2017 10.4521 41.8094 11.6177C40.0668 16.7966 37.9741 20.0714 33.2113 20.0708C31.0378 20.0714 29.0488 19.2233 28.265 17.0868C26.8334 18.8983 24.6455 20.0807 22.1508 20.093C20.2441 20.1023 18.7614 19.4285 17.819 18.2711C16.7001 19.5059 14.8068 20.0714 12.9249 20.0719C11.2343 20.0708 9.82269 19.4819 8.89613 18.4757C7.8637 19.5169 6.24147 20.0695 4.17524 20.021C1.52851 19.9576 0.0498966 18.3695 0.00120219 16.1652C-0.0715658 12.7527 3.17837 5.70791 4.51802 3.56892C5.44266 2.05146 6.72704 1.30654 8.43271 1.30572C9.36912 1.30654 10.3307 1.46931 10.9252 2.09906C11.414 2.61609 11.4925 3.07568 11.5286 3.94561C13.0278 1.53005 15.5544 1.20177 17.8726 1.20232C19.6464 1.20232 21.1187 1.86626 21.7364 2.86996C22.9253 1.85942 24.6375 1.21818 26.6915 1.21818C28.7938 1.21846 30.36 1.73139 31.3349 2.8344C31.55 3.0765 31.7029 3.26143 31.9037 3.68272ZM8.71202 15.5732C8.79026 14.7481 8.17228 13.8571 5.70665 14.285C5.95149 13.7365 6.3156 12.9847 6.72896 12.1312C8.05355 9.3961 9.88397 5.61654 9.91844 4.13793C9.93704 3.40888 9.64323 2.80102 8.46089 2.80157C7.2118 2.80102 6.42831 3.32353 5.78653 4.37784C4.39464 6.60055 1.43878 13.3056 1.50088 16.2037C1.5359 17.8604 2.82028 18.5143 4.24746 18.5476C6.21438 18.5933 8.48004 18.041 8.7123 15.5729L8.71202 15.5732ZM13.7319 12.0086C13.5678 12.4502 13.2592 13.3748 13.01 14.3534C13.8192 14.1515 14.4251 14.0117 15.4639 14.0357C16.6481 14.0647 17.4059 14.555 17.4053 15.5349C17.4053 17.9078 14.781 18.6048 12.9627 18.6054C10.964 18.6054 9.20827 17.4687 9.20827 15.2832C9.20827 12.721 10.5969 8.83584 11.9001 6.2493C13.4999 3.07158 15.1356 2.64947 17.9514 2.64947C19.1895 2.64947 20.6148 3.17799 20.6148 4.34666C20.6148 5.9667 19.2448 6.58441 17.8838 6.66265C17.3019 6.69603 16.4082 6.72803 15.8736 6.68973C15.8736 6.68973 15.4193 7.38048 14.9392 8.60878C17.4581 8.25424 18.5272 8.82627 18.1021 10.283C17.5265 12.2524 15.82 12.3823 13.7316 12.0084L13.7319 12.0086ZM24.6646 6.77974C24.997 6.31386 25.4415 5.88245 26.1235 5.88245C26.9593 5.88245 26.8783 6.32452 26.68 6.88943C26.1167 8.49799 27.8177 8.54039 28.233 8.50756C29.7179 8.39185 30.5361 7.43246 30.7375 5.79819C31.0132 3.57302 29.1385 2.71868 26.762 2.71868C22.8008 2.71868 21.2459 5.14136 19.7626 8.60468C19.0659 10.2316 18.1883 13.0118 18.1885 14.7823C18.1883 17.269 19.7014 18.6174 22.1399 18.6174C25.7009 18.6174 28.2171 15.7778 28.9361 12.2398C29.1574 11.151 29.4301 9.10776 26.6644 9.22157C25.2604 9.27956 24.4135 9.58924 23.967 11.0238C23.5075 12.5016 25.1743 12.5418 25.1743 12.5418C24.8389 14.0697 23.8571 14.996 22.9822 14.9968C22.4362 14.9968 21.9394 14.7599 22.1057 13.6043C22.3527 11.9148 23.935 7.80533 24.6646 6.77974ZM41.0831 8.80602C40.6629 10.8906 39.7219 13.3581 38.6993 15.1967C37.0305 18.1961 35.0064 18.6163 33.2367 18.5939C31.4682 18.5728 29.4742 17.9206 29.4591 15.191C29.4484 13.2323 30.2929 10.466 31.0105 8.65474C32.262 5.36924 33.5385 2.68968 37.5788 2.73756C42.289 2.79254 41.4489 6.98217 41.0831 8.80602ZM35.1747 14.1506C35.8296 13.0413 37.6731 8.00968 37.7235 6.75156C37.7382 6.38498 37.6778 5.95822 37.0869 5.95138C36.6817 5.94564 36.3294 6.02415 36.0126 6.51356C35.3008 7.43875 33.2171 13.1297 33.2523 14.265C33.2652 14.6731 33.4931 15.0296 33.9942 15.0296C34.5715 15.0301 34.8913 14.6329 35.1747 14.1506Z" fill="#FCFBFD"/>
</svg>
