<svg width="50" height="12" viewBox="0 0 50 12" fill="none" xmlns="http://www.w3.org/2000/svg">
<path d="M0 7.89014C0.435581 8.91354 1.16249 9.78625 2.09027 10.3997C3.01805 11.0131 4.10574 11.3402 5.21798 11.3402C4.7825 10.3167 4.05562 9.44392 3.12781 8.83047C2.20001 8.21702 1.11227 7.89001 0 7.89014Z" fill="#FCFBFD"/>
<path d="M5.21826 11.3395C6.03519 11.3395 6.83485 11.1043 7.52168 10.662C8.2085 10.2197 8.75343 9.58898 9.09134 8.84521C8.27441 8.84516 7.47474 9.08034 6.78792 9.52265C6.1011 9.96496 5.55616 10.5957 5.21826 11.3395Z" fill="#FCFBFD"/>
<path fill-rule="evenodd" clip-rule="evenodd" d="M8.75423 6.61506C9.22148 5.91563 9.47083 5.09335 9.47073 4.2522C9.47073 3.69379 9.36075 3.14085 9.14705 2.62495C8.93336 2.10905 8.62014 1.64029 8.22529 1.24544C7.83044 0.850587 7.36168 0.537372 6.84578 0.323679C6.32988 0.109986 5.77694 2.92284e-08 5.21853 2.92284e-08C4.37738 -9.85659e-05 3.5551 0.249246 2.85567 0.716501C2.15624 1.18376 1.61109 1.84793 1.28915 2.62503C0.967208 3.40213 0.882949 4.25725 1.04702 5.08224C1.2111 5.90723 1.61614 6.66503 2.21092 7.25981C2.8057 7.85459 3.56351 8.25963 4.38849 8.42371C5.21348 8.58778 6.0686 8.50352 6.8457 8.18159C7.6228 7.85965 8.28697 7.31449 8.75423 6.61506ZM6.9863 5.43319C7.21991 5.08356 7.34461 4.6725 7.34461 4.252C7.34461 3.68812 7.12061 3.14734 6.72189 2.74862C6.32317 2.34989 5.78238 2.1259 5.21851 2.1259C4.798 2.1259 4.38694 2.25059 4.03731 2.48421C3.68767 2.71783 3.41517 3.04988 3.25425 3.43837C3.09333 3.82687 3.05123 4.25435 3.13326 4.66678C3.2153 5.0792 3.41779 5.45804 3.71513 5.75538C4.01247 6.05272 4.3913 6.25521 4.80373 6.33724C5.21615 6.41928 5.64364 6.37717 6.03213 6.21626C6.42063 6.05534 6.75268 5.78283 6.9863 5.43319Z" fill="#FCFBFD"/>
<path d="M32.5778 4.25216H34.3567V11.1468H32.5778V8.46146H29.472V11.1468H27.6931V4.25216H29.472V6.7928H32.5778V4.25216ZM35.1938 5.96222H37.4112V11.1468H39.1901V5.96222H41.377V4.25216H35.1963L35.1938 5.96222ZM49.9996 9.64673V11.1128C49.6968 11.2625 49.3177 11.3403 48.8757 11.3403C47.9514 11.3403 47.4864 10.9378 47.2999 10.2927L47.2704 10.3361C46.7322 11.0116 45.9879 11.3428 45.0226 11.3428C44.0987 11.3428 43.3126 10.9981 42.6511 10.2952C42.0026 9.59185 41.6718 8.72335 41.6718 7.70121C41.6718 6.67906 42.0006 5.82503 42.6491 5.12116C43.3106 4.41778 44.0958 4.0591 45.0206 4.0591C45.9455 4.0591 46.6668 4.3624 47.1961 4.97998V4.25216H48.9745V9.12892C48.9745 9.54596 49.1641 9.76046 49.5432 9.76046C49.7022 9.76497 49.8595 9.72562 49.9977 9.64673H49.9996ZM47.2684 7.70121C47.2684 7.13551 47.0889 6.66659 46.7167 6.30842C46.358 5.93578 45.9031 5.75669 45.3514 5.75669C44.7996 5.75669 44.3452 5.93578 43.9865 6.30842C43.6278 6.66659 43.4487 7.13551 43.4487 7.70121C43.4487 8.26691 43.6278 8.73533 43.9865 9.10747C44.3453 9.46631 44.8003 9.64556 45.3514 9.64523C45.9024 9.6449 46.3575 9.46564 46.7167 9.10747C47.0889 8.73533 47.2684 8.26641 47.2684 7.70121ZM13.0373 4.25366L12.9845 6.84369C12.972 7.89127 12.9346 8.41057 12.7849 9.00421C12.6457 9.5724 12.3809 9.73303 11.9638 9.73303C11.8398 9.73778 11.7159 9.7209 11.5977 9.68314V11.1488C11.7363 11.2246 11.9638 11.2625 12.2671 11.2625C13.5177 11.2246 14.1238 10.6344 14.4271 9.5729C14.6421 8.81514 14.6801 8.23398 14.718 7.36249L14.7579 5.96571H16.9663V11.1468H18.7452V4.25216L13.0373 4.25366ZM21.6041 8.16564C21.7957 9.34342 22.7285 9.72804 23.6753 9.72804C24.3024 9.72804 24.9594 9.4831 25.3644 9.11645L26.4619 10.2199C25.8069 10.9452 24.895 11.3413 23.6484 11.3413C21.9024 11.3413 19.7978 10.3112 19.7978 7.69971C19.7978 5.08823 21.8251 4.05811 23.5466 4.05811C25.7241 4.05811 26.6255 5.08125 26.6255 6.2286C26.6255 8.10328 24.2425 8.96979 21.6046 8.16315L21.6041 8.16564ZM24.6945 6.43163C24.6945 5.89637 24.1652 5.65792 23.5726 5.65792C22.6666 5.65792 21.8825 6.04004 21.6435 7.02377C23.4892 7.55654 24.6945 7.15946 24.6945 6.43163Z" fill="#FCFBFD"/>
</svg>
