<svg width="40" height="40" viewBox="0 0 40 40" fill="none" xmlns="http://www.w3.org/2000/svg">
<path fill-rule="evenodd" clip-rule="evenodd" d="M23.685 27.62V19.875L20 24.1125L16.3125 19.8775V27.62H11.425V12.38H16.0525L20 17.28L23.9425 12.38H28.5725V27.62H23.685ZM12.82 0H40V5H11.41C9.18 5 8.3725 5.2325 7.56 5.6675C6.7425 6.1025 6.1025 6.7425 5.6675 7.5575C5.2325 8.3725 5 9.1825 5 11.4075V22.5C5 23.8261 4.47322 25.0979 3.53553 26.0355C2.59785 26.9732 1.32608 27.5 0 27.5L0 12.82C0 8.3625 0.465 6.745 1.335 5.115C2.18752 3.50452 3.50452 2.18752 5.115 1.335C6.745 0.465 8.3625 0 12.82 0ZM27.18 40H0V35H28.59C30.82 35 31.6275 34.7675 32.44 34.3325C33.2575 33.8975 33.8975 33.2575 34.3325 32.4425C34.7675 31.6275 35 30.8175 35 28.5925V17.5C35 16.1739 35.5268 14.9021 36.4645 13.9645C37.4021 13.0268 38.6739 12.5 40 12.5V27.18C40 31.6375 39.535 33.255 38.665 34.885C37.8125 36.4955 36.4955 37.8125 34.885 38.665C33.255 39.535 31.6375 40 27.18 40Z" fill="white"/>
</svg>
