<svg width="50" height="11" viewBox="0 0 50 11" fill="none" xmlns="http://www.w3.org/2000/svg">
<path d="M20.8839 8.18448H16.5711L22.0771 0.839951C22.197 0.67868 22.1637 0.443494 22.0037 0.322541C21.9437 0.275504 21.8638 0.248625 21.7838 0.248625H13.8182C13.1183 0.248625 12.545 0.826512 12.545 1.53207C12.545 2.23763 13.1183 2.81552 13.8182 2.81552H17.3977L11.8718 10.1668C11.7451 10.328 11.7784 10.5565 11.9384 10.6842C12.0051 10.7379 12.0851 10.7648 12.165 10.7581H20.8772C21.5771 10.7245 22.1171 10.1197 22.0837 9.40745C22.0504 8.74893 21.5305 8.2248 20.8772 8.1912V8.18448H20.8839ZM48.7202 0.248625C48.0203 0.248625 47.447 0.826512 47.447 1.53207V5.83934L40.5679 0.33598C40.4146 0.208308 40.1813 0.228467 40.0547 0.389738C40.0013 0.456934 39.9747 0.537569 39.9747 0.624924V9.47465C39.9747 10.1802 40.5479 10.7581 41.2478 10.7581C41.9477 10.7581 42.521 10.1869 42.521 9.47465V5.16738L49.4001 10.6775C49.5601 10.8051 49.7934 10.7783 49.92 10.617C49.9733 10.5498 50 10.4692 50 10.3885V1.53207C49.9933 0.819792 49.4267 0.248625 48.7202 0.248625ZM30.5159 8.42639C27.603 8.42639 25.4299 6.88088 25.4299 5.49664C25.4299 4.1124 27.6097 2.56689 30.5159 2.56689C33.4289 2.56689 35.6019 4.1124 35.6019 5.49664C35.6019 6.88088 33.4355 8.42639 30.5159 8.42639ZM30.5159 0C26.3032 0 22.8836 2.45938 22.8836 5.49664C22.8836 8.5339 26.3032 10.9933 30.5159 10.9933C34.7287 10.9933 38.1482 8.5339 38.1482 5.49664C38.1482 2.45938 34.7287 0 30.5159 0ZM5.45927 8.43311C3.85282 8.43311 2.54633 7.12278 2.54633 5.50336C2.54633 3.88393 3.84615 2.56689 5.45261 2.56689C7.05906 2.56689 8.36555 3.87721 8.36555 5.49664V5.50336C8.36555 7.11607 7.06572 8.42639 5.45927 8.43311ZM5.45927 0C2.44634 0 0.00666578 2.45938 0 5.49664C0 8.5339 2.43967 10.9933 5.45261 11C8.46554 11 10.9052 8.54062 10.9119 5.50336V5.49664C10.9052 2.45938 8.46554 0 5.45927 0Z" fill="white"/>
</svg>
