<svg width="40" height="40" viewBox="0 0 40 40" fill="none" xmlns="http://www.w3.org/2000/svg">
<path fill-rule="evenodd" clip-rule="evenodd" d="M0 20C0 8.97194 8.97194 0 20 0C31.0281 0 40 8.97194 40 20C40 31.0281 31.0281 40 20 40C8.97194 40 0 31.0281 0 20ZM19.283 11.9641C23.6291 11.9291 28.8938 11.8867 31.0387 6.31324C35.0474 9.52804 37.6182 14.4627 37.6182 20C37.6182 29.6832 29.7662 37.5353 20.083 37.5353C10.3998 37.5353 2.54777 29.6858 2.54777 20C2.54777 10.3143 10.3998 2.4648 20.083 2.46997C21.8986 2.46997 23.6521 2.74671 25.2996 3.2588C25.1393 3.25363 24.9789 3.25363 24.8186 3.25363C20.7761 3.25363 16.2294 3.864 13.9276 9.91081C13.8367 10.1538 13.7977 10.2863 13.7409 10.4792L13.7409 10.4792L13.7409 10.4793L13.7408 10.4796C13.7184 10.5556 13.6933 10.641 13.6612 10.7462C13.5862 10.9867 12.9499 13.4773 12.7379 14.4317L11.4007 19.7957L11.4628 19.8216L15.0526 21.3527C18.0036 15.9602 24.4772 18.4172 23.8461 23.0312C23.228 27.565 17.7346 29.7505 15.0242 25.3796C14.8949 25.1727 14.7733 24.9477 14.7035 24.7149L10.6533 25.7546C10.7878 26.1969 11.1395 27.0245 11.3412 27.4383C13.25 31.3488 17.5044 32.7816 21.3425 31.8247C24.8651 30.9453 28.1963 27.8883 28.7342 23.2174C29.5308 16.2809 22.0719 11.7238 16.4337 16.3197L17.5432 11.9928C18.0985 11.9736 18.682 11.9689 19.283 11.9641ZM25.7444 9.28218C27.5781 8.56835 28.7626 7.24157 29.4428 5.12855V5.12596C28.9592 5.16993 28.4135 5.19062 27.7488 5.19062C27.2858 5.19062 26.8203 5.18286 26.3289 5.17252C25.8375 5.16217 25.328 5.15182 24.8211 5.15182C21.1744 5.15182 17.7552 5.60702 15.8491 10.2081C16.8883 10.0836 18.0224 10.0739 19.2072 10.0638L19.2708 10.0632C21.5157 10.0451 23.8383 10.0245 25.7444 9.28218Z" fill="white"/>
</svg>
