<svg width="32" height="12" viewBox="0 0 32 12" fill="none" xmlns="http://www.w3.org/2000/svg">
<path d="M5.07478 0.375H10.7893L11.5771 1.16614L12.3433 1.9573H12.3425L11.1667 3.65261C10.3224 4.87003 10.3149 5.84183 11.1667 7.09682L12.4058 8.82896H6.60781L5.51147 7.09682C4.7224 5.89684 4.72569 4.82215 5.51147 3.65261L6.6505 1.9573L5.07478 0.375Z" fill="#FCFBFD"/>
<path d="M5.09668 10.4115H10.7772L12.4063 8.8291H6.60828L5.09668 10.4115Z" fill="#FCFBFD"/>
<path fill-rule="evenodd" clip-rule="evenodd" d="M5.75592 9.62025L4.97266 10.4114H7.90777H10.8429L11.6262 9.62025L12.4094 8.8291H9.47435H6.60892L5.75592 9.62025Z" fill="#FCFBFD"/>
<path fill-rule="evenodd" clip-rule="evenodd" d="M2.472 7.3772C2.40642 7.41179 1.95544 8.04075 1.37685 8.90458L0.375 10.4113C1.02854 10.4113 4.94976 10.4113 4.94976 10.4113C4.94976 10.4113 3.11544 7.59677 2.99217 7.46703C2.87233 7.34095 2.6225 7.29781 2.472 7.3772Z" fill="#FCFBFD"/>
<path fill-rule="evenodd" clip-rule="evenodd" d="M2.472 3.40913C2.40642 3.37455 1.95544 2.74561 1.37685 1.88176L0.375 0.375C1.02854 0.375 4.94976 0.375 4.94976 0.375C4.94976 0.375 3.11544 3.18956 2.99217 3.31931C2.87233 3.44539 2.6225 3.48852 2.472 3.40913Z" fill="#FCFBFD"/>
<path d="M4.95076 0.375L6.52637 1.9573L5.38744 3.65261C4.60167 4.82215 4.59837 5.89684 5.38744 7.09682L6.60845 8.82896H12.4083L11.2325 7.09682C10.3807 5.84183 10.3882 4.87003 11.2325 3.65261L12.4083 1.9573H12.4092L11.6429 1.16615L10.8551 0.375H4.95076Z" fill="#FCFBFD"/>
<path d="M17.3296 7.43213C16.831 7.43213 16.4028 7.60254 16.1813 7.86599V7.43543H15.335V11.6249H16.221V10.0487C16.457 10.338 16.8503 10.4626 17.3296 10.4626C18.1873 10.4626 18.764 9.89061 18.764 8.94329C18.764 7.99596 18.2439 7.43213 17.3296 7.43213ZM17.157 9.77854C16.7139 9.77854 16.2492 9.63232 16.2492 8.94329C16.2492 8.30388 16.7139 8.1081 17.157 8.1081C17.6 8.1081 17.9945 8.42197 17.9945 8.94329C17.9945 9.46461 17.6 9.77854 17.157 9.77854Z" fill="#FCFBFD"/>
<path d="M19.8229 7.97182L19.824 7.43542H19.041V10.4528H19.8638V9.02735C19.8638 8.45003 20.2707 8.18658 20.7591 8.18658C20.8273 8.18658 21.1112 8.22081 21.2117 8.28239L21.3189 7.47523C20.3086 7.2636 20.0388 7.68029 19.8229 7.97182Z" fill="#FCFBFD"/>
<path d="M22.9684 10.4959C24.0205 10.4959 24.6439 9.83459 24.6439 8.92651C24.6439 7.9302 23.9304 7.37378 22.9591 7.37378C21.9879 7.37378 21.2363 7.9302 21.2363 8.92651C21.2363 9.83459 21.9012 10.4959 22.9684 10.4959ZM22.9591 9.71522C22.4414 9.71522 22.0674 9.44783 22.0674 8.92651C22.0674 8.40519 22.4414 8.12283 22.9591 8.12283C23.4767 8.12283 23.8128 8.40519 23.8128 8.92651C23.8128 9.44783 23.4767 9.71522 22.9591 9.71522Z" fill="#FCFBFD"/>
<path d="M19.4776 3.73389C18.8672 3.73389 18.4868 3.88367 18.2439 4.19419C18.0291 3.86109 17.709 3.73389 17.215 3.73389C16.6232 3.73389 16.403 3.91887 16.1769 4.17858V3.77906H15.335V6.76433H16.1776V5.23998C16.1776 4.69798 16.457 4.44393 16.9663 4.44393C17.3712 4.44393 17.709 4.66975 17.709 5.16093V6.76433H18.5073V5.23998C18.5073 4.60932 18.8673 4.44393 19.2629 4.44393C19.6189 4.44393 20.0055 4.60932 20.0055 5.16093V6.76433H20.8039V5.02544C20.8039 4.09953 20.2801 3.73389 19.4776 3.73389Z" fill="#FCFBFD"/>
<path d="M24.3527 4.81112C24.1568 4.10137 23.4945 3.68188 22.747 3.68188C21.8203 3.68188 21.1113 4.13919 21.1113 5.19063C21.1113 6.21484 21.6931 6.76812 22.8151 6.76812C23.5598 6.76812 24.1864 6.47753 24.3942 5.7303H23.5631C23.4384 5.89635 23.3137 6.0624 22.8151 6.0624C22.1917 6.0624 21.9424 5.77181 21.9009 5.43971H24.3942C24.4122 5.2071 24.4157 5.03936 24.3527 4.81112ZM22.747 4.36037C23.1426 4.36037 23.5216 4.56793 23.5631 4.90004H21.9009C21.9424 4.60945 22.3458 4.36037 22.747 4.36037Z" fill="#FCFBFD"/>
<path d="M27.179 2.86572V4.23565C27.0128 3.94506 26.6388 3.72687 26.1402 3.72687C25.1012 3.72687 24.6025 4.29144 24.6025 5.24557C24.6025 6.19971 25.1012 6.80945 26.1402 6.80945C26.547 6.80945 27.0563 6.56037 27.179 6.26979V6.76429H27.9867V2.86572H27.179ZM26.2648 6.08679C25.824 6.08679 25.3921 5.77063 25.3921 5.24557C25.3921 4.72052 25.824 4.40436 26.2648 4.40436C26.6999 4.40436 27.1221 4.72052 27.1221 5.24557C27.1221 5.77063 26.6999 6.08679 26.2648 6.08679Z" fill="#FCFBFD"/>
<path d="M31.6246 6.76447L30.4195 5.23447L31.5794 3.72705H30.6688L29.9576 4.65097L29.2143 3.72705H28.3076L29.4774 5.23447L28.3076 6.76447H29.2683L29.9576 5.83292L30.6688 6.76447H31.6246Z" fill="#FCFBFD"/>
<path d="M15.0354 9.96447C15.0354 10.2256 14.8235 10.4372 14.5621 10.4372C14.3008 10.4372 14.0889 10.2256 14.0889 9.96447C14.0889 9.70331 14.3008 9.4917 14.5621 9.4917C14.8235 9.4917 15.0354 9.70331 15.0354 9.96447Z" fill="#FCFBFD"/>
</svg>
