<svg width="23" height="20" viewBox="0 0 23 20" fill="none" xmlns="http://www.w3.org/2000/svg">
<path fill-rule="evenodd" clip-rule="evenodd" d="M11.637 0.261165C11.5929 0.279891 11.5367 0.317059 11.5123 0.343732C11.4629 0.397568 11.0812 1.02552 9.73971 3.26025C9.24288 4.08785 8.69736 4.99648 8.52743 5.27942C8.35751 5.56236 7.81284 6.46519 7.31706 7.28572C6.82128 8.10625 5.98493 9.49523 5.4585 10.3723C4.93207 11.2495 4.0441 12.7252 3.48526 13.6519C2.32407 15.5773 1.91867 16.2509 1.47283 16.9957C1.29924 17.2857 1.04827 17.7024 0.915101 17.9217C0.689973 18.2924 0.672935 18.3304 0.671919 18.4639C0.671009 18.5816 0.683981 18.6239 0.744081 18.6997C0.868454 18.8565 1.12239 18.8918 1.29143 18.7758C1.34032 18.7423 1.62518 18.2935 2.11336 17.4807C2.7919 16.3511 3.58823 15.0278 5.71795 11.4912C6.12263 10.8193 6.87488 9.56918 7.38965 8.71328C7.90442 7.85739 8.8343 6.31215 9.45608 5.27942C10.0778 4.24669 10.7077 3.19916 10.8557 2.95159C11.1655 2.43353 11.7885 1.39812 11.7956 1.38979C11.8005 1.38387 11.9773 1.67697 13.8317 4.76498C14.4603 5.81186 15.293 7.19505 15.6821 7.83874C16.0712 8.48243 16.4594 9.12483 16.5449 9.2663C16.6304 9.40777 17.0402 10.0907 17.4556 10.7839C17.871 11.4771 18.3611 12.2926 18.5448 12.5961C19.0799 13.4802 20.6426 16.0773 21.4681 17.4543C21.9809 18.3097 22.2541 18.7408 22.3065 18.7772C22.4267 18.8607 22.6334 18.8674 22.7503 18.7916C22.8647 18.7174 22.9374 18.5854 22.9375 18.4516C22.9376 18.3416 22.9284 18.3258 21.1506 15.3752C19.7656 13.0766 18.678 11.2692 17.7839 9.78074C17.342 9.04509 16.6344 7.87025 16.2116 7.16997C15.7888 6.4697 15.373 5.78099 15.2876 5.63952C15.2021 5.49805 14.8652 4.93667 14.5387 4.39201C12.913 1.67942 12.1886 0.482913 12.1135 0.385813C11.9961 0.234054 11.8134 0.186263 11.637 0.261165ZM5.68585 18.5679C5.38367 18.6834 5.3413 19.0942 5.61481 19.2567L5.70554 19.3107H11.8011H17.8967L17.9941 19.2471C18.186 19.1216 18.2247 18.86 18.0765 18.6906C17.9341 18.5279 18.3938 18.5389 11.7917 18.5406C7.85692 18.5417 5.72942 18.5512 5.68585 18.5679Z" fill="#FCFBFD"/>
</svg>
