<svg width="40" height="24" viewBox="0 0 40 24" fill="none" xmlns="http://www.w3.org/2000/svg">
<path d="M39.0829 1.60891C39.3623 0.680692 39.0829 0 37.7614 0H33.3838C32.27 0 31.7609 0.588868 31.4815 1.23562C31.4815 1.23562 29.2558 6.66319 26.1018 10.1824C25.0838 11.2065 24.6187 11.5298 24.0637 11.5298C23.7863 11.5298 23.3831 11.2065 23.3831 10.2782V1.60891C23.3831 0.495049 23.0617 0 22.1335 0H15.2547C14.56 0 14.1408 0.51501 14.1408 1.00607C14.1408 2.06004 15.7178 2.30357 15.8795 5.27386V11.7175C15.8795 13.1288 15.626 13.3863 15.067 13.3863C13.5839 13.3863 9.97483 7.93874 7.83294 1.70273C7.41574 0.491056 6.99455 0.00199602 5.8767 0.00199602H1.50111C0.249521 0.00199602 0 0.590864 0 1.23762C0 2.39939 1.48315 8.14834 6.90872 15.7517C10.5258 20.9437 15.618 23.7583 20.2571 23.7583C23.0377 23.7583 23.3811 23.1335 23.3811 22.0556V18.1311C23.3811 16.8816 23.6465 16.63 24.5269 16.63C25.1736 16.63 26.2875 16.9574 28.8845 19.4586C31.8508 22.4249 32.3418 23.7563 34.0086 23.7563H38.3842C39.6338 23.7563 40.2586 23.1315 39.8993 21.8979C39.5061 20.6703 38.0888 18.8837 36.2084 16.7698C35.1864 15.5641 33.6593 14.2666 33.1942 13.6178C32.5454 12.7814 32.7331 12.4121 33.1942 11.6696C33.1962 11.6716 38.5279 4.162 39.0829 1.60891Z" fill="#FCFBFD"/>
</svg>
