<svg width="28" height="19" viewBox="0 0 28 19" fill="none" xmlns="http://www.w3.org/2000/svg">
<path d="M27.3335 4.54936V14.4506C27.3335 17.9452 23.4813 20.0296 20.6054 18.0911L16.5736 15.3735C15.9692 18.2933 12.5512 19.852 9.93875 18.0911L2.59389 13.1405C2.50395 13.0799 2.41715 13.0167 2.3335 12.9511V17.5C2.3335 18.0523 1.88578 18.5 1.3335 18.5C0.781212 18.5 0.333496 18.0523 0.333496 17.5V1.49999C0.333496 0.947705 0.781212 0.49999 1.3335 0.49999C1.88578 0.49999 2.3335 0.947705 2.3335 1.49999V6.04885C2.41715 5.98329 2.50395 5.92011 2.5939 5.85948L9.93875 0.908852C12.5512 -0.852002 15.9692 0.706644 16.5736 3.62644L20.6054 0.908852C23.4813 -1.02959 27.3335 1.05479 27.3335 4.54936Z" fill="#FCFBFD"/>
</svg>
