<svg width="28" height="19" viewBox="0 0 28 19" fill="none" xmlns="http://www.w3.org/2000/svg">
<path d="M0.666504 14.4506V4.54936C0.666504 1.05479 4.51867 -1.02959 7.39458 0.908852L11.4265 3.62644C12.0308 0.706644 15.4488 -0.852002 18.0612 0.908852L25.4061 5.85948C25.4961 5.92011 25.5829 5.98329 25.6665 6.04885V1.49999C25.6665 0.947705 26.1142 0.49999 26.6665 0.49999C27.2188 0.49999 27.6665 0.947705 27.6665 1.49999V17.5C27.6665 18.0523 27.2188 18.5 26.6665 18.5C26.1142 18.5 25.6665 18.0523 25.6665 17.5V12.9511C25.5829 13.0167 25.4961 13.0799 25.4061 13.1405L18.0612 18.0911C15.4488 19.852 12.0308 18.2933 11.4265 15.3735L7.39458 18.0911C4.51867 20.0296 0.666504 17.9452 0.666504 14.4506Z" fill="#FCFBFD"/>
</svg>
