<svg width="20" height="18" viewBox="0 0 20 18" fill="none" xmlns="http://www.w3.org/2000/svg">
<path d="M0 10.1368V7.86321C0 6.2819 1.2819 5 2.86321 5C3.43048 5 3.98497 4.83149 4.45633 4.51585L10.6578 0.363111C11.0113 0.126382 11.4271 0 11.8526 0C13.0386 0 14 0.961426 14 2.14741V15.8526C14 17.0386 13.0386 18 11.8526 18C11.4271 18 11.0113 17.8736 10.6578 17.6369L4.45633 13.4841C3.98497 13.1685 3.43048 13 2.86321 13C1.2819 13 0 11.7181 0 10.1368Z" fill="#FCFBFD"/>
<path d="M18.0906 14.0874C18.9305 13.0143 19.75 11.355 19.75 8.99989C19.75 6.6448 18.9305 4.98546 18.0906 3.91238C17.6736 3.37962 17.255 2.99519 16.9359 2.74116C16.7761 2.61397 16.6405 2.51884 16.5414 2.45356C16.4918 2.4209 16.4512 2.39565 16.4212 2.37753C16.4062 2.36847 16.3938 2.36119 16.3842 2.35565L16.372 2.34864L16.3681 2.34643L16.3657 2.34508L16.3641 2.34421C16.002 2.14311 15.5454 2.27365 15.3443 2.63577C15.1438 2.99677 15.2729 3.45164 15.6325 3.65369L15.6462 3.66179C15.6601 3.67019 15.684 3.68496 15.7164 3.70632C15.7814 3.74909 15.8801 3.81797 16.0016 3.91469C16.245 4.10847 16.5764 4.41141 16.9094 4.8369C17.5695 5.68032 18.25 7.02098 18.25 8.99989C18.25 10.9788 17.5695 12.3195 16.9094 13.1629C16.5764 13.5884 16.245 13.8913 16.0016 14.0851C15.8801 14.1818 15.7814 14.2507 15.7164 14.2935C15.684 14.3148 15.6601 14.3296 15.6462 14.338L15.6325 14.3461C15.2729 14.5481 15.1438 15.003 15.3443 15.364C15.5454 15.7261 16.002 15.8567 16.3641 15.6556C16.372 15.6511 16.3657 15.6547 16.3657 15.6547L16.3675 15.6537L16.372 15.6511L16.3842 15.6441C16.3938 15.6386 16.4062 15.6313 16.4212 15.6223C16.4512 15.6041 16.4918 15.5789 16.5414 15.5462C16.6405 15.4809 16.7761 15.3858 16.9359 15.2586C17.255 15.0046 17.6736 14.6202 18.0906 14.0874Z" fill="#FCFBFD"/>
<path d="M15.3641 6.34421C15.002 6.14311 14.5454 6.27365 14.3443 6.63577C14.1453 6.99423 14.2711 7.44525 14.625 7.64939L14.6305 7.65296C14.6407 7.65971 14.6614 7.67392 14.6891 7.696C14.745 7.74051 14.8264 7.81433 14.9094 7.9204C15.0695 8.12499 15.25 8.46565 15.25 8.99989C15.25 9.53413 15.0695 9.87479 14.9094 10.0794C14.8264 10.1855 14.745 10.2593 14.6891 10.3038C14.6614 10.3259 14.6407 10.3401 14.6305 10.3468L14.625 10.3504C14.2711 10.5545 14.1453 11.0056 14.3443 11.364C14.5454 11.7261 15.002 11.8567 15.3641 11.6556L15.3656 11.6548L15.3671 11.6539L15.3705 11.652L15.3785 11.6474L15.3987 11.6354C15.4141 11.6262 15.4332 11.6142 15.4555 11.5996C15.4999 11.5703 15.5574 11.5299 15.6234 11.4773C15.755 11.3726 15.9236 11.2172 16.0906 11.0039C16.4305 10.5697 16.75 9.91032 16.75 8.99989C16.75 8.08947 16.4305 7.43013 16.0906 6.99589C15.9236 6.78254 15.755 6.62724 15.6234 6.52247C15.5574 6.46992 15.4999 6.42946 15.4555 6.40019C15.4332 6.38554 15.4141 6.37363 15.3987 6.36435L15.3785 6.35237L15.3705 6.34782L15.3671 6.3459L15.3656 6.34503C15.3656 6.34503 15.3987 6.36435 15.3785 6.35237L15.3641 6.34421Z" fill="#FCFBFD"/>
</svg>
