<svg width="16" height="18" viewBox="0 0 16 18" fill="none" xmlns="http://www.w3.org/2000/svg">
<path d="M11.8526 0C12.4147 0 12.9264 0.21599 13.3092 0.569506L1.32594 12.5527C0.528732 12.0444 0 11.1524 0 10.1368V7.86321C0 6.2819 1.2819 5 2.86321 5C3.43048 5 3.98497 4.83149 4.45633 4.51585L10.6578 0.363111C11.0113 0.126382 11.4271 0 11.8526 0Z" fill="#FCFBFD"/>
<path d="M10.6578 17.6369L4.56464 13.5567L14 4.12132V15.8526C14 17.0386 13.0386 18 11.8526 18C11.4271 18 11.0113 17.8736 10.6578 17.6369Z" fill="#FCFBFD"/>
<path d="M15.5303 1.53033C15.8232 1.23744 15.8232 0.762563 15.5303 0.46967C15.2374 0.176777 14.7626 0.176777 14.4697 0.46967L0.96967 13.9697C0.676777 14.2626 0.676777 14.7374 0.96967 15.0303C1.26256 15.3232 1.73744 15.3232 2.03033 15.0303L15.5303 1.53033Z" fill="#FCFBFD"/>
</svg>
